<svg width="1160" height="160" viewBox="0 0 1160 160" fill="none" xmlns="http://www.w3.org/2000/svg">
<g clip-path="url(#clip0_1592_10537)">
<rect width="1160" height="160" rx="16" fill="#FFFAE5"/>
<mask id="path-3-inside-1_1592_10537" fill="white">
<path d="M0 24H992V58H0V24Z"/>
</mask>
<path d="M5 58V24H-5V58H5Z" fill="#0A0A0A" mask="url(#path-3-inside-1_1592_10537)"/>
<path d="M40.9176 38.6562H37.1847C37.1165 38.1733 36.9773 37.7443 36.767 37.3693C36.5568 36.9886 36.2869 36.6648 35.9574 36.3977C35.6278 36.1307 35.2472 35.9261 34.8153 35.7841C34.3892 35.642 33.9261 35.571 33.4261 35.571C32.5227 35.571 31.7358 35.7955 31.0653 36.2443C30.3949 36.6875 29.875 37.3352 29.5057 38.1875C29.1364 39.0341 28.9517 40.0625 28.9517 41.2727C28.9517 42.517 29.1364 43.5625 29.5057 44.4091C29.8807 45.2557 30.4034 45.8949 31.0739 46.3267C31.7443 46.7585 32.5199 46.9744 33.4006 46.9744C33.8949 46.9744 34.3523 46.9091 34.7727 46.7784C35.1989 46.6477 35.5767 46.4574 35.9062 46.2074C36.2358 45.9517 36.5085 45.642 36.7244 45.2784C36.946 44.9148 37.0994 44.5 37.1847 44.0341L40.9176 44.0511C40.821 44.8523 40.5795 45.625 40.1932 46.3693C39.8125 47.108 39.2983 47.7699 38.6506 48.3551C38.0085 48.9347 37.2415 49.3949 36.3494 49.7358C35.4631 50.071 34.4602 50.2386 33.3409 50.2386C31.7841 50.2386 30.392 49.8864 29.1648 49.1818C27.9432 48.4773 26.9773 47.4574 26.267 46.1222C25.5625 44.7869 25.2102 43.1705 25.2102 41.2727C25.2102 39.3693 25.5682 37.75 26.2841 36.4148C27 35.0795 27.9716 34.0625 29.1989 33.3636C30.4261 32.6591 31.8068 32.3068 33.3409 32.3068C34.3523 32.3068 35.2898 32.4489 36.1534 32.733C37.0227 33.017 37.7926 33.4318 38.4631 33.9773C39.1335 34.517 39.679 35.179 40.0994 35.9631C40.5256 36.7472 40.7983 37.6449 40.9176 38.6562ZM47.1264 32.5455V50H43.4957V32.5455H47.1264ZM55.9496 50.2557C54.6257 50.2557 53.4808 49.9744 52.5149 49.4119C51.5547 48.8437 50.8132 48.054 50.2905 47.0426C49.7678 46.0256 49.5064 44.8466 49.5064 43.5057C49.5064 42.1534 49.7678 40.9716 50.2905 39.9602C50.8132 38.9432 51.5547 38.1534 52.5149 37.5909C53.4808 37.0227 54.6257 36.7386 55.9496 36.7386C57.2734 36.7386 58.4155 37.0227 59.3757 37.5909C60.3416 38.1534 61.0859 38.9432 61.6087 39.9602C62.1314 40.9716 62.3928 42.1534 62.3928 43.5057C62.3928 44.8466 62.1314 46.0256 61.6087 47.0426C61.0859 48.054 60.3416 48.8437 59.3757 49.4119C58.4155 49.9744 57.2734 50.2557 55.9496 50.2557ZM55.9666 47.4432C56.5689 47.4432 57.0717 47.2727 57.4751 46.9318C57.8786 46.5852 58.1825 46.1136 58.3871 45.517C58.5973 44.9205 58.7024 44.2415 58.7024 43.4801C58.7024 42.7188 58.5973 42.0398 58.3871 41.4432C58.1825 40.8466 57.8786 40.375 57.4751 40.0284C57.0717 39.6818 56.5689 39.5085 55.9666 39.5085C55.3587 39.5085 54.8473 39.6818 54.4325 40.0284C54.0234 40.375 53.7138 40.8466 53.5036 41.4432C53.299 42.0398 53.1967 42.7188 53.1967 43.4801C53.1967 44.2415 53.299 44.9205 53.5036 45.517C53.7138 46.1136 54.0234 46.5852 54.4325 46.9318C54.8473 47.2727 55.3587 47.4432 55.9666 47.4432ZM73.1484 44.4261V36.9091H76.7791V50H73.2933V47.6222H73.157C72.8615 48.3892 72.37 49.0057 71.6825 49.4716C71.0007 49.9375 70.1683 50.1705 69.1854 50.1705C68.3104 50.1705 67.5405 49.9716 66.8757 49.5739C66.2109 49.1761 65.6911 48.6108 65.3161 47.8778C64.9467 47.1449 64.7592 46.267 64.7536 45.2443V36.9091H68.3842V44.5966C68.3899 45.3693 68.5973 45.9801 69.0064 46.429C69.4155 46.8778 69.9638 47.1023 70.6513 47.1023C71.0888 47.1023 71.4979 47.0028 71.8786 46.804C72.2592 46.5994 72.5661 46.2983 72.799 45.9006C73.0376 45.5028 73.1541 45.0114 73.1484 44.4261ZM86.6463 36.9091V39.6364H78.7628V36.9091H86.6463ZM80.5526 33.7727H84.1832V45.9773C84.1832 46.3125 84.2344 46.5739 84.3366 46.7614C84.4389 46.9432 84.581 47.071 84.7628 47.1449C84.9503 47.2187 85.1662 47.2557 85.4105 47.2557C85.581 47.2557 85.7514 47.2415 85.9219 47.2131C86.0923 47.179 86.223 47.1534 86.3139 47.1364L86.8849 49.8381C86.7031 49.8949 86.4474 49.9602 86.1179 50.0341C85.7884 50.1136 85.3878 50.1619 84.9162 50.179C84.0412 50.2131 83.2741 50.0966 82.6151 49.8295C81.9616 49.5625 81.4531 49.1477 81.0895 48.5852C80.7259 48.0227 80.5469 47.3125 80.5526 46.4545V33.7727ZM97.6428 50H93.6882L99.7138 32.5455H104.469L110.487 50H106.532L102.16 36.5341H102.023L97.6428 50ZM97.3956 43.1392H106.737V46.0199H97.3956V43.1392ZM123.107 40.642L119.783 40.8466C119.726 40.5625 119.604 40.3068 119.416 40.0795C119.229 39.8466 118.982 39.6619 118.675 39.5256C118.374 39.3835 118.013 39.3125 117.592 39.3125C117.03 39.3125 116.555 39.4318 116.169 39.6705C115.783 39.9034 115.589 40.2159 115.589 40.608C115.589 40.9205 115.714 41.1847 115.964 41.4006C116.214 41.6165 116.643 41.7898 117.251 41.9205L119.621 42.3977C120.893 42.6591 121.842 43.0795 122.467 43.6591C123.092 44.2386 123.405 45 123.405 45.9432C123.405 46.8011 123.152 47.554 122.646 48.2017C122.146 48.8494 121.459 49.3551 120.584 49.7188C119.714 50.0767 118.712 50.2557 117.575 50.2557C115.842 50.2557 114.462 49.8949 113.433 49.1733C112.411 48.446 111.811 47.4574 111.635 46.2074L115.206 46.0199C115.314 46.5483 115.575 46.9517 115.99 47.2301C116.405 47.5028 116.936 47.6392 117.584 47.6392C118.22 47.6392 118.732 47.517 119.118 47.2727C119.51 47.0227 119.709 46.7017 119.714 46.3097C119.709 45.9801 119.57 45.7102 119.297 45.5C119.024 45.2841 118.604 45.1193 118.036 45.0057L115.768 44.554C114.49 44.2983 113.538 43.8551 112.913 43.2244C112.294 42.5937 111.984 41.7898 111.984 40.8125C111.984 39.9716 112.212 39.2472 112.666 38.6392C113.126 38.0312 113.771 37.5625 114.601 37.233C115.436 36.9034 116.413 36.7386 117.533 36.7386C119.186 36.7386 120.487 37.0881 121.436 37.7869C122.391 38.4858 122.947 39.4375 123.107 40.642ZM136.583 40.642L133.259 40.8466C133.202 40.5625 133.08 40.3068 132.893 40.0795C132.705 39.8466 132.458 39.6619 132.151 39.5256C131.85 39.3835 131.489 39.3125 131.069 39.3125C130.506 39.3125 130.032 39.4318 129.646 39.6705C129.259 39.9034 129.066 40.2159 129.066 40.608C129.066 40.9205 129.191 41.1847 129.441 41.4006C129.691 41.6165 130.12 41.7898 130.728 41.9205L133.097 42.3977C134.37 42.6591 135.319 43.0795 135.944 43.6591C136.569 44.2386 136.881 45 136.881 45.9432C136.881 46.8011 136.629 47.554 136.123 48.2017C135.623 48.8494 134.935 49.3551 134.06 49.7188C133.191 50.0767 132.188 50.2557 131.052 50.2557C129.319 50.2557 127.938 49.8949 126.91 49.1733C125.887 48.446 125.288 47.4574 125.112 46.2074L128.683 46.0199C128.79 46.5483 129.052 46.9517 129.467 47.2301C129.881 47.5028 130.413 47.6392 131.06 47.6392C131.697 47.6392 132.208 47.517 132.594 47.2727C132.987 47.0227 133.185 46.7017 133.191 46.3097C133.185 45.9801 133.046 45.7102 132.773 45.5C132.501 45.2841 132.08 45.1193 131.512 45.0057L129.245 44.554C127.967 44.2983 127.015 43.8551 126.39 43.2244C125.771 42.5937 125.461 41.7898 125.461 40.8125C125.461 39.9716 125.688 39.2472 126.143 38.6392C126.603 38.0312 127.248 37.5625 128.077 37.233C128.913 36.9034 129.89 36.7386 131.009 36.7386C132.663 36.7386 133.964 37.0881 134.913 37.7869C135.867 38.4858 136.424 39.4375 136.583 40.642ZM147.562 44.4261V36.9091H151.193V50H147.707V47.6222H147.571C147.276 48.3892 146.784 49.0057 146.097 49.4716C145.415 49.9375 144.582 50.1705 143.599 50.1705C142.724 50.1705 141.955 49.9716 141.29 49.5739C140.625 49.1761 140.105 48.6108 139.73 47.8778C139.361 47.1449 139.173 46.267 139.168 45.2443V36.9091H142.798V44.5966C142.804 45.3693 143.011 45.9801 143.42 46.429C143.83 46.8778 144.378 47.1023 145.065 47.1023C145.503 47.1023 145.912 47.0028 146.293 46.804C146.673 46.5994 146.98 46.2983 147.213 45.9006C147.452 45.5028 147.568 45.0114 147.562 44.4261ZM154.097 50V36.9091H157.617V39.1932H157.754C157.992 38.3807 158.393 37.767 158.955 37.3523C159.518 36.9318 160.165 36.7216 160.898 36.7216C161.08 36.7216 161.276 36.733 161.487 36.7557C161.697 36.7784 161.881 36.8097 162.04 36.8494V40.071C161.87 40.0199 161.634 39.9744 161.333 39.9347C161.032 39.8949 160.756 39.875 160.506 39.875C159.972 39.875 159.495 39.9915 159.075 40.2244C158.66 40.4517 158.33 40.7699 158.086 41.179C157.847 41.5881 157.728 42.0597 157.728 42.5938V50H154.097ZM167.276 50.2472C166.44 50.2472 165.696 50.1023 165.043 49.8125C164.389 49.517 163.872 49.0824 163.491 48.5085C163.116 47.929 162.929 47.2074 162.929 46.3438C162.929 45.6165 163.063 45.0057 163.33 44.5114C163.597 44.017 163.96 43.6193 164.42 43.3182C164.881 43.017 165.403 42.7898 165.989 42.6364C166.58 42.483 167.199 42.375 167.847 42.3125C168.608 42.233 169.222 42.1591 169.688 42.0909C170.153 42.017 170.491 41.9091 170.702 41.767C170.912 41.625 171.017 41.4148 171.017 41.1364V41.0852C171.017 40.5455 170.847 40.1278 170.506 39.8324C170.17 39.5369 169.693 39.3892 169.074 39.3892C168.42 39.3892 167.901 39.5341 167.514 39.8239C167.128 40.108 166.872 40.4659 166.747 40.8977L163.389 40.625C163.56 39.8295 163.895 39.142 164.395 38.5625C164.895 37.9773 165.54 37.5284 166.33 37.2159C167.125 36.8977 168.045 36.7386 169.091 36.7386C169.818 36.7386 170.514 36.8239 171.179 36.9943C171.849 37.1648 172.443 37.429 172.96 37.7869C173.483 38.1449 173.895 38.6051 174.196 39.1676C174.497 39.7244 174.648 40.392 174.648 41.1705V50H171.205V48.1847H171.102C170.892 48.5938 170.611 48.9545 170.259 49.267C169.906 49.5739 169.483 49.8153 168.989 49.9915C168.494 50.1619 167.923 50.2472 167.276 50.2472ZM168.315 47.7415C168.849 47.7415 169.321 47.6364 169.73 47.4261C170.139 47.2102 170.46 46.9205 170.693 46.5568C170.926 46.1932 171.043 45.7812 171.043 45.321V43.9318C170.929 44.0057 170.773 44.0739 170.574 44.1364C170.381 44.1932 170.162 44.2472 169.918 44.2983C169.673 44.3437 169.429 44.3864 169.185 44.4261C168.94 44.4602 168.719 44.4915 168.52 44.5199C168.094 44.5824 167.722 44.6818 167.403 44.8182C167.085 44.9545 166.838 45.1392 166.662 45.3722C166.486 45.5994 166.398 45.8835 166.398 46.2244C166.398 46.7188 166.577 47.0966 166.935 47.358C167.298 47.6136 167.759 47.7415 168.315 47.7415ZM181.095 42.4318V50H177.464V36.9091H180.925V39.2188H181.078C181.368 38.4574 181.854 37.8551 182.536 37.4119C183.217 36.9631 184.044 36.7386 185.016 36.7386C185.925 36.7386 186.717 36.9375 187.393 37.3352C188.07 37.733 188.595 38.3011 188.97 39.0398C189.345 39.7727 189.533 40.6477 189.533 41.6648V50H185.902V42.3125C185.908 41.5114 185.703 40.8864 185.288 40.4375C184.874 39.983 184.303 39.7557 183.575 39.7557C183.087 39.7557 182.655 39.8608 182.28 40.071C181.911 40.2812 181.621 40.5881 181.411 40.9915C181.206 41.3892 181.101 41.8693 181.095 42.4318ZM198.309 50.2557C196.968 50.2557 195.815 49.9716 194.849 49.4034C193.888 48.8295 193.15 48.0341 192.633 47.017C192.121 46 191.866 44.8295 191.866 43.5057C191.866 42.1648 192.124 40.9886 192.641 39.9773C193.164 38.9602 193.906 38.1676 194.866 37.5994C195.826 37.0256 196.968 36.7386 198.292 36.7386C199.434 36.7386 200.434 36.946 201.292 37.3608C202.15 37.7756 202.829 38.358 203.329 39.108C203.829 39.858 204.104 40.7386 204.156 41.75H200.729C200.633 41.0966 200.377 40.571 199.962 40.1733C199.553 39.7699 199.016 39.5682 198.352 39.5682C197.789 39.5682 197.298 39.7216 196.877 40.0284C196.462 40.3295 196.138 40.7699 195.906 41.3494C195.673 41.929 195.556 42.6307 195.556 43.4545C195.556 44.2898 195.67 45 195.897 45.5852C196.13 46.1705 196.457 46.6165 196.877 46.9233C197.298 47.2301 197.789 47.3835 198.352 47.3835C198.766 47.3835 199.138 47.2983 199.468 47.1278C199.803 46.9574 200.079 46.7102 200.295 46.3864C200.516 46.0568 200.661 45.6619 200.729 45.2017H204.156C204.099 46.2017 203.826 47.0824 203.337 47.8438C202.854 48.5994 202.187 49.1903 201.335 49.6165C200.482 50.0426 199.474 50.2557 198.309 50.2557ZM212.446 50.2557C211.099 50.2557 209.94 49.983 208.969 49.4375C208.003 48.8864 207.259 48.108 206.736 47.1023C206.213 46.0909 205.952 44.8949 205.952 43.5142C205.952 42.1676 206.213 40.9858 206.736 39.9688C207.259 38.9517 207.994 38.1591 208.943 37.5909C209.898 37.0227 211.017 36.7386 212.301 36.7386C213.165 36.7386 213.969 36.8778 214.713 37.1562C215.463 37.429 216.116 37.8409 216.673 38.392C217.236 38.9432 217.673 39.6364 217.986 40.4716C218.298 41.3011 218.455 42.2727 218.455 43.3864V44.3835H207.401V42.1335H215.037C215.037 41.6108 214.923 41.1477 214.696 40.7443C214.469 40.3409 214.153 40.0256 213.75 39.7983C213.352 39.5653 212.889 39.4489 212.361 39.4489C211.81 39.4489 211.321 39.5767 210.895 39.8324C210.474 40.0824 210.145 40.4205 209.906 40.8466C209.668 41.267 209.545 41.7358 209.54 42.2528V44.392C209.54 45.0398 209.659 45.5994 209.898 46.071C210.142 46.5426 210.486 46.9062 210.929 47.1619C211.372 47.4176 211.898 47.5455 212.506 47.5455C212.909 47.5455 213.278 47.4886 213.614 47.375C213.949 47.2614 214.236 47.0909 214.474 46.8636C214.713 46.6364 214.895 46.358 215.02 46.0284L218.378 46.25C218.207 47.0568 217.858 47.7614 217.33 48.3636C216.807 48.9602 216.131 49.4261 215.301 49.7614C214.477 50.0909 213.526 50.2557 212.446 50.2557Z" fill="#0A0A0A"/>
<path d="M103.483 91.0909H105.392L106.523 92.5568L107.33 93.5114L109.267 96H107.222L105.903 94.3295L105.341 93.5341L103.483 91.0909ZM109.545 89.1818C109.545 90.4356 109.311 91.5095 108.841 92.4034C108.375 93.2936 107.739 93.9754 106.932 94.4489C106.129 94.9223 105.218 95.1591 104.199 95.1591C103.18 95.1591 102.267 94.9223 101.46 94.4489C100.657 93.9716 100.021 93.2879 99.5511 92.3977C99.0852 91.5038 98.8523 90.4318 98.8523 89.1818C98.8523 87.928 99.0852 86.8561 99.5511 85.9659C100.021 85.072 100.657 84.3883 101.46 83.9148C102.267 83.4413 103.18 83.2045 104.199 83.2045C105.218 83.2045 106.129 83.4413 106.932 83.9148C107.739 84.3883 108.375 85.072 108.841 85.9659C109.311 86.8561 109.545 87.928 109.545 89.1818ZM107.426 89.1818C107.426 88.2992 107.288 87.5549 107.011 86.9489C106.739 86.339 106.36 85.8788 105.875 85.5682C105.39 85.2538 104.831 85.0966 104.199 85.0966C103.566 85.0966 103.008 85.2538 102.523 85.5682C102.038 85.8788 101.657 86.339 101.381 86.9489C101.108 87.5549 100.972 88.2992 100.972 89.1818C100.972 90.0644 101.108 90.8106 101.381 91.4205C101.657 92.0265 102.038 92.4867 102.523 92.8011C103.008 93.1117 103.566 93.267 104.199 93.267C104.831 93.267 105.39 93.1117 105.875 92.8011C106.36 92.4867 106.739 92.0265 107.011 91.4205C107.288 90.8106 107.426 90.0644 107.426 89.1818ZM117.026 91.3295V86.2727H119.082V95H117.088V93.4489H116.997C116.8 93.9375 116.476 94.3371 116.026 94.6477C115.579 94.9583 115.027 95.1136 114.372 95.1136C113.8 95.1136 113.295 94.9867 112.855 94.733C112.42 94.4754 112.079 94.1023 111.832 93.6136C111.586 93.1212 111.463 92.5265 111.463 91.8295V86.2727H113.52V91.5114C113.52 92.0644 113.671 92.5038 113.974 92.8295C114.277 93.1553 114.675 93.3182 115.168 93.3182C115.471 93.3182 115.764 93.2443 116.048 93.0966C116.332 92.9489 116.565 92.7292 116.747 92.4375C116.933 92.142 117.026 91.7727 117.026 91.3295ZM123.709 95.1761C123.156 95.1761 122.658 95.0777 122.214 94.8807C121.775 94.6799 121.427 94.3845 121.169 93.9943C120.915 93.6042 120.788 93.1231 120.788 92.5511C120.788 92.0587 120.879 91.6515 121.061 91.3295C121.243 91.0076 121.491 90.75 121.805 90.5568C122.12 90.3636 122.474 90.2178 122.868 90.1193C123.266 90.017 123.677 89.9432 124.101 89.8977C124.612 89.8447 125.027 89.7973 125.345 89.7557C125.663 89.7102 125.894 89.642 126.038 89.5511C126.186 89.4564 126.26 89.3106 126.26 89.1136V89.0795C126.26 88.6515 126.133 88.3201 125.879 88.0852C125.625 87.8504 125.26 87.733 124.783 87.733C124.279 87.733 123.879 87.8428 123.584 88.0625C123.292 88.2822 123.095 88.5417 122.993 88.8409L121.072 88.5682C121.224 88.0379 121.474 87.5947 121.822 87.2386C122.171 86.8788 122.597 86.6098 123.101 86.4318C123.605 86.25 124.161 86.1591 124.771 86.1591C125.192 86.1591 125.61 86.2083 126.027 86.3068C126.444 86.4053 126.824 86.5682 127.169 86.7955C127.514 87.0189 127.79 87.3239 127.999 87.7102C128.211 88.0966 128.317 88.5795 128.317 89.1591V95H126.339V93.8011H126.271C126.146 94.0436 125.97 94.2708 125.743 94.483C125.519 94.6913 125.237 94.8598 124.896 94.9886C124.559 95.1136 124.163 95.1761 123.709 95.1761ZM124.243 93.6648C124.656 93.6648 125.014 93.5833 125.317 93.4205C125.62 93.2538 125.853 93.0341 126.016 92.7614C126.182 92.4886 126.266 92.1913 126.266 91.8693V90.8409C126.201 90.8939 126.091 90.9432 125.936 90.9886C125.785 91.0341 125.614 91.0739 125.425 91.108C125.235 91.142 125.048 91.1723 124.862 91.1989C124.677 91.2254 124.516 91.2481 124.379 91.267C124.072 91.3087 123.798 91.3769 123.555 91.4716C123.313 91.5663 123.122 91.6989 122.982 91.8693C122.841 92.036 122.771 92.2519 122.771 92.517C122.771 92.8958 122.91 93.1818 123.186 93.375C123.463 93.5682 123.815 93.6648 124.243 93.6648ZM132.442 83.3636V95H130.385V83.3636H132.442ZM134.557 95V86.2727H136.614V95H134.557ZM135.591 85.0341C135.265 85.0341 134.985 84.9261 134.75 84.7102C134.515 84.4905 134.398 84.2273 134.398 83.9205C134.398 83.6098 134.515 83.3466 134.75 83.1307C134.985 82.911 135.265 82.8011 135.591 82.8011C135.92 82.8011 136.201 82.911 136.432 83.1307C136.667 83.3466 136.784 83.6098 136.784 83.9205C136.784 84.2273 136.667 84.4905 136.432 84.7102C136.201 84.9261 135.92 85.0341 135.591 85.0341ZM143.087 86.2727V87.8636H138.07V86.2727H143.087ZM139.308 84.1818H141.365V92.375C141.365 92.6515 141.407 92.8636 141.49 93.0114C141.577 93.1553 141.691 93.2538 141.831 93.3068C141.971 93.3598 142.126 93.3864 142.297 93.3864C142.426 93.3864 142.543 93.3769 142.649 93.358C142.759 93.339 142.842 93.322 142.899 93.3068L143.246 94.9148C143.136 94.9527 142.979 94.9943 142.774 95.0398C142.573 95.0852 142.327 95.1117 142.036 95.1193C141.52 95.1345 141.056 95.0568 140.643 94.8864C140.231 94.7121 139.903 94.4432 139.661 94.0795C139.422 93.7159 139.304 93.2614 139.308 92.7159V84.1818ZM146.085 98.2727C145.805 98.2727 145.545 98.25 145.307 98.2045C145.072 98.1629 144.884 98.1136 144.744 98.0568L145.222 96.4545C145.521 96.5417 145.788 96.5833 146.023 96.5795C146.258 96.5758 146.464 96.5019 146.642 96.358C146.824 96.2178 146.977 95.983 147.102 95.6534L147.278 95.1818L144.114 86.2727H146.295L148.307 92.8636H148.398L150.415 86.2727H152.602L149.108 96.0568C148.945 96.5189 148.729 96.9148 148.46 97.2443C148.191 97.5777 147.862 97.8314 147.472 98.0057C147.085 98.1837 146.623 98.2727 146.085 98.2727ZM159.58 95H157.33L161.426 83.3636H164.028L168.131 95H165.881L162.773 85.75H162.682L159.58 95ZM159.653 90.4375H165.79V92.1307H159.653V90.4375ZM176.33 88.5795L174.455 88.7841C174.402 88.5947 174.309 88.4167 174.176 88.25C174.047 88.0833 173.873 87.9489 173.653 87.8466C173.434 87.7443 173.165 87.6932 172.847 87.6932C172.419 87.6932 172.059 87.786 171.767 87.9716C171.479 88.1572 171.337 88.3977 171.341 88.6932C171.337 88.947 171.43 89.1534 171.619 89.3125C171.813 89.4716 172.131 89.6023 172.574 89.7045L174.062 90.0227C174.888 90.2008 175.502 90.483 175.903 90.8693C176.309 91.2557 176.513 91.7614 176.517 92.3864C176.513 92.9356 176.352 93.4205 176.034 93.8409C175.72 94.2576 175.282 94.5833 174.722 94.8182C174.161 95.053 173.517 95.1705 172.79 95.1705C171.722 95.1705 170.862 94.947 170.21 94.5C169.559 94.0492 169.17 93.4223 169.045 92.6193L171.051 92.4261C171.142 92.8201 171.335 93.1174 171.631 93.3182C171.926 93.5189 172.311 93.6193 172.784 93.6193C173.273 93.6193 173.665 93.5189 173.96 93.3182C174.259 93.1174 174.409 92.8693 174.409 92.5739C174.409 92.3239 174.313 92.1174 174.119 91.9545C173.93 91.7917 173.634 91.6667 173.233 91.5795L171.744 91.267C170.907 91.0928 170.288 90.7992 169.886 90.3864C169.485 89.9697 169.286 89.4432 169.29 88.8068C169.286 88.2689 169.432 87.803 169.727 87.4091C170.027 87.0114 170.441 86.7045 170.972 86.4886C171.506 86.2689 172.121 86.1591 172.818 86.1591C173.841 86.1591 174.646 86.3769 175.233 86.8125C175.824 87.2481 176.189 87.8371 176.33 88.5795ZM185.111 88.5795L183.236 88.7841C183.183 88.5947 183.09 88.4167 182.957 88.25C182.829 88.0833 182.654 87.9489 182.435 87.8466C182.215 87.7443 181.946 87.6932 181.628 87.6932C181.2 87.6932 180.84 87.786 180.548 87.9716C180.26 88.1572 180.118 88.3977 180.122 88.6932C180.118 88.947 180.211 89.1534 180.401 89.3125C180.594 89.4716 180.912 89.6023 181.355 89.7045L182.844 90.0227C183.67 90.2008 184.283 90.483 184.685 90.8693C185.09 91.2557 185.295 91.7614 185.298 92.3864C185.295 92.9356 185.134 93.4205 184.815 93.8409C184.501 94.2576 184.063 94.5833 183.503 94.8182C182.942 95.053 182.298 95.1705 181.571 95.1705C180.503 95.1705 179.643 94.947 178.991 94.5C178.34 94.0492 177.952 93.4223 177.827 92.6193L179.832 92.4261C179.923 92.8201 180.116 93.1174 180.412 93.3182C180.707 93.5189 181.092 93.6193 181.565 93.6193C182.054 93.6193 182.446 93.5189 182.741 93.3182C183.041 93.1174 183.19 92.8693 183.19 92.5739C183.19 92.3239 183.094 92.1174 182.901 91.9545C182.711 91.7917 182.416 91.6667 182.014 91.5795L180.526 91.267C179.688 91.0928 179.069 90.7992 178.668 90.3864C178.266 89.9697 178.067 89.4432 178.071 88.8068C178.067 88.2689 178.213 87.803 178.509 87.4091C178.808 87.0114 179.223 86.7045 179.753 86.4886C180.287 86.2689 180.902 86.1591 181.599 86.1591C182.622 86.1591 183.427 86.3769 184.014 86.8125C184.605 87.2481 184.971 87.8371 185.111 88.5795ZM192.557 91.3295V86.2727H194.614V95H192.619V93.4489H192.528C192.331 93.9375 192.008 94.3371 191.557 94.6477C191.11 94.9583 190.559 95.1136 189.903 95.1136C189.331 95.1136 188.826 94.9867 188.386 94.733C187.951 94.4754 187.61 94.1023 187.364 93.6136C187.117 93.1212 186.994 92.5265 186.994 91.8295V86.2727H189.051V91.5114C189.051 92.0644 189.203 92.5038 189.506 92.8295C189.809 93.1553 190.206 93.3182 190.699 93.3182C191.002 93.3182 191.295 93.2443 191.58 93.0966C191.864 92.9489 192.097 92.7292 192.278 92.4375C192.464 92.142 192.557 91.7727 192.557 91.3295ZM196.729 95V86.2727H198.723V87.7273H198.814C198.973 87.2235 199.246 86.8352 199.632 86.5625C200.022 86.286 200.467 86.1477 200.967 86.1477C201.081 86.1477 201.208 86.1534 201.348 86.1648C201.492 86.1723 201.611 86.1856 201.706 86.2045V88.0966C201.619 88.0663 201.481 88.0398 201.291 88.017C201.106 87.9905 200.926 87.9773 200.751 87.9773C200.376 87.9773 200.039 88.0587 199.74 88.2216C199.445 88.3807 199.212 88.6023 199.041 88.8864C198.871 89.1705 198.786 89.4981 198.786 89.8693V95H196.729ZM206.577 95.1705C205.702 95.1705 204.946 94.9886 204.31 94.625C203.677 94.2576 203.19 93.7386 202.849 93.0682C202.509 92.3939 202.338 91.6004 202.338 90.6875C202.338 89.7898 202.509 89.0019 202.849 88.3239C203.194 87.642 203.675 87.1117 204.293 86.733C204.91 86.3504 205.635 86.1591 206.469 86.1591C207.007 86.1591 207.514 86.2462 207.991 86.4205C208.473 86.5909 208.897 86.8561 209.264 87.2159C209.635 87.5758 209.927 88.0341 210.139 88.5909C210.351 89.1439 210.457 89.803 210.457 90.5682V91.1989H203.304V89.8125H208.486C208.482 89.4186 208.397 89.0682 208.23 88.7614C208.063 88.4508 207.83 88.2064 207.531 88.0284C207.236 87.8504 206.891 87.7614 206.497 87.7614C206.077 87.7614 205.707 87.8636 205.389 88.0682C205.071 88.2689 204.823 88.5341 204.645 88.8636C204.471 89.1894 204.382 89.5473 204.378 89.9375V91.1477C204.378 91.6553 204.471 92.0909 204.656 92.4545C204.842 92.8144 205.101 93.0909 205.435 93.2841C205.768 93.4735 206.158 93.5682 206.605 93.5682C206.904 93.5682 207.175 93.5265 207.418 93.4432C207.66 93.3561 207.87 93.2292 208.048 93.0625C208.226 92.8958 208.361 92.6894 208.452 92.4432L210.372 92.6591C210.251 93.1667 210.02 93.6098 209.679 93.9886C209.342 94.3636 208.91 94.6553 208.384 94.8636C207.857 95.0682 207.255 95.1705 206.577 95.1705ZM215.436 95.1534C214.75 95.1534 214.137 94.9773 213.595 94.625C213.054 94.2727 212.625 93.7614 212.311 93.0909C211.997 92.4205 211.839 91.6061 211.839 90.6477C211.839 89.678 211.999 88.8598 212.317 88.1932C212.639 87.5227 213.072 87.017 213.618 86.6761C214.163 86.3314 214.771 86.1591 215.442 86.1591C215.953 86.1591 216.374 86.2462 216.703 86.4205C217.033 86.5909 217.294 86.7973 217.487 87.0398C217.68 87.2784 217.83 87.5038 217.936 87.7159H218.021V83.3636H220.084V95H218.061V93.625H217.936C217.83 93.8371 217.677 94.0625 217.476 94.3011C217.275 94.536 217.01 94.7367 216.68 94.9034C216.351 95.0701 215.936 95.1534 215.436 95.1534ZM216.01 93.4659C216.446 93.4659 216.817 93.3485 217.124 93.1136C217.43 92.875 217.663 92.5436 217.822 92.1193C217.982 91.6951 218.061 91.2008 218.061 90.6364C218.061 90.072 217.982 89.5814 217.822 89.1648C217.667 88.7481 217.436 88.4242 217.129 88.1932C216.826 87.9621 216.453 87.8466 216.01 87.8466C215.552 87.8466 215.169 87.9659 214.862 88.2045C214.555 88.4432 214.324 88.7727 214.169 89.1932C214.014 89.6136 213.936 90.0947 213.936 90.6364C213.936 91.1818 214.014 91.6686 214.169 92.0966C214.328 92.5208 214.561 92.8561 214.868 93.1023C215.179 93.3447 215.559 93.4659 216.01 93.4659ZM99.1477 117V105.364H103.511C104.405 105.364 105.155 105.53 105.761 105.864C106.371 106.197 106.831 106.655 107.142 107.239C107.456 107.818 107.614 108.477 107.614 109.216C107.614 109.962 107.456 110.625 107.142 111.205C106.828 111.784 106.364 112.241 105.75 112.574C105.136 112.903 104.381 113.068 103.483 113.068H100.591V111.335H103.199C103.722 111.335 104.15 111.244 104.483 111.062C104.816 110.881 105.063 110.631 105.222 110.312C105.384 109.994 105.466 109.629 105.466 109.216C105.466 108.803 105.384 108.439 105.222 108.125C105.063 107.811 104.814 107.566 104.477 107.392C104.144 107.214 103.714 107.125 103.188 107.125H101.256V117H99.1477ZM109.354 117V108.273H111.348V109.727H111.439C111.598 109.223 111.871 108.835 112.257 108.562C112.647 108.286 113.092 108.148 113.592 108.148C113.706 108.148 113.833 108.153 113.973 108.165C114.117 108.172 114.236 108.186 114.331 108.205V110.097C114.244 110.066 114.106 110.04 113.916 110.017C113.731 109.991 113.551 109.977 113.376 109.977C113.001 109.977 112.664 110.059 112.365 110.222C112.07 110.381 111.837 110.602 111.666 110.886C111.496 111.17 111.411 111.498 111.411 111.869V117H109.354ZM119.145 117.17C118.293 117.17 117.554 116.983 116.929 116.608C116.304 116.233 115.819 115.708 115.474 115.034C115.134 114.36 114.963 113.572 114.963 112.67C114.963 111.769 115.134 110.979 115.474 110.301C115.819 109.623 116.304 109.097 116.929 108.722C117.554 108.347 118.293 108.159 119.145 108.159C119.997 108.159 120.736 108.347 121.361 108.722C121.986 109.097 122.469 109.623 122.81 110.301C123.154 110.979 123.327 111.769 123.327 112.67C123.327 113.572 123.154 114.36 122.81 115.034C122.469 115.708 121.986 116.233 121.361 116.608C120.736 116.983 119.997 117.17 119.145 117.17ZM119.156 115.523C119.618 115.523 120.005 115.396 120.315 115.142C120.626 114.884 120.857 114.54 121.009 114.108C121.164 113.676 121.241 113.195 121.241 112.665C121.241 112.131 121.164 111.648 121.009 111.216C120.857 110.78 120.626 110.434 120.315 110.176C120.005 109.919 119.618 109.79 119.156 109.79C118.683 109.79 118.289 109.919 117.974 110.176C117.664 110.434 117.431 110.78 117.276 111.216C117.124 111.648 117.048 112.131 117.048 112.665C117.048 113.195 117.124 113.676 117.276 114.108C117.431 114.54 117.664 114.884 117.974 115.142C118.289 115.396 118.683 115.523 119.156 115.523ZM128.311 117.153C127.625 117.153 127.012 116.977 126.47 116.625C125.929 116.273 125.5 115.761 125.186 115.091C124.872 114.42 124.714 113.606 124.714 112.648C124.714 111.678 124.874 110.86 125.192 110.193C125.514 109.523 125.947 109.017 126.493 108.676C127.038 108.331 127.646 108.159 128.317 108.159C128.828 108.159 129.249 108.246 129.578 108.42C129.908 108.591 130.169 108.797 130.362 109.04C130.555 109.278 130.705 109.504 130.811 109.716H130.896V105.364H132.959V117H130.936V115.625H130.811C130.705 115.837 130.552 116.062 130.351 116.301C130.15 116.536 129.885 116.737 129.555 116.903C129.226 117.07 128.811 117.153 128.311 117.153ZM128.885 115.466C129.321 115.466 129.692 115.348 129.999 115.114C130.305 114.875 130.538 114.544 130.697 114.119C130.857 113.695 130.936 113.201 130.936 112.636C130.936 112.072 130.857 111.581 130.697 111.165C130.542 110.748 130.311 110.424 130.004 110.193C129.701 109.962 129.328 109.847 128.885 109.847C128.427 109.847 128.044 109.966 127.737 110.205C127.43 110.443 127.199 110.773 127.044 111.193C126.889 111.614 126.811 112.095 126.811 112.636C126.811 113.182 126.889 113.669 127.044 114.097C127.203 114.521 127.436 114.856 127.743 115.102C128.054 115.345 128.434 115.466 128.885 115.466ZM140.713 113.33V108.273H142.77V117H140.776V115.449H140.685C140.488 115.937 140.164 116.337 139.713 116.648C139.266 116.958 138.715 117.114 138.06 117.114C137.488 117.114 136.982 116.987 136.543 116.733C136.107 116.475 135.766 116.102 135.52 115.614C135.274 115.121 135.151 114.527 135.151 113.83V108.273H137.207V113.511C137.207 114.064 137.359 114.504 137.662 114.83C137.965 115.155 138.363 115.318 138.855 115.318C139.158 115.318 139.452 115.244 139.736 115.097C140.02 114.949 140.253 114.729 140.435 114.438C140.62 114.142 140.713 113.773 140.713 113.33ZM148.692 117.17C147.821 117.17 147.072 116.979 146.447 116.597C145.826 116.214 145.347 115.686 145.01 115.011C144.677 114.333 144.51 113.553 144.51 112.67C144.51 111.784 144.68 111.002 145.021 110.324C145.362 109.642 145.843 109.112 146.464 108.733C147.089 108.35 147.828 108.159 148.68 108.159C149.389 108.159 150.016 108.29 150.561 108.551C151.11 108.809 151.548 109.174 151.874 109.648C152.199 110.117 152.385 110.667 152.43 111.295H150.464C150.385 110.875 150.196 110.525 149.896 110.244C149.601 109.96 149.205 109.818 148.709 109.818C148.288 109.818 147.919 109.932 147.601 110.159C147.283 110.383 147.035 110.705 146.857 111.125C146.682 111.545 146.595 112.049 146.595 112.636C146.595 113.231 146.682 113.742 146.857 114.17C147.031 114.595 147.275 114.922 147.589 115.153C147.908 115.381 148.281 115.494 148.709 115.494C149.012 115.494 149.283 115.437 149.521 115.324C149.764 115.206 149.966 115.038 150.129 114.818C150.292 114.598 150.404 114.331 150.464 114.017H152.43C152.381 114.634 152.199 115.182 151.885 115.659C151.571 116.133 151.143 116.504 150.601 116.773C150.059 117.038 149.423 117.17 148.692 117.17ZM158.477 108.273V109.864H153.46V108.273H158.477ZM154.699 106.182H156.756V114.375C156.756 114.652 156.797 114.864 156.881 115.011C156.968 115.155 157.081 115.254 157.222 115.307C157.362 115.36 157.517 115.386 157.688 115.386C157.816 115.386 157.934 115.377 158.04 115.358C158.15 115.339 158.233 115.322 158.29 115.307L158.636 116.915C158.527 116.953 158.369 116.994 158.165 117.04C157.964 117.085 157.718 117.112 157.426 117.119C156.911 117.134 156.447 117.057 156.034 116.886C155.621 116.712 155.294 116.443 155.051 116.08C154.813 115.716 154.695 115.261 154.699 114.716V106.182ZM166.97 110.58L165.095 110.784C165.042 110.595 164.949 110.417 164.817 110.25C164.688 110.083 164.514 109.949 164.294 109.847C164.074 109.744 163.805 109.693 163.487 109.693C163.059 109.693 162.699 109.786 162.408 109.972C162.12 110.157 161.978 110.398 161.982 110.693C161.978 110.947 162.071 111.153 162.26 111.312C162.453 111.472 162.771 111.602 163.214 111.705L164.703 112.023C165.529 112.201 166.143 112.483 166.544 112.869C166.949 113.256 167.154 113.761 167.158 114.386C167.154 114.936 166.993 115.42 166.675 115.841C166.36 116.258 165.923 116.583 165.362 116.818C164.802 117.053 164.158 117.17 163.43 117.17C162.362 117.17 161.502 116.947 160.851 116.5C160.199 116.049 159.811 115.422 159.686 114.619L161.692 114.426C161.783 114.82 161.976 115.117 162.271 115.318C162.567 115.519 162.951 115.619 163.425 115.619C163.913 115.619 164.305 115.519 164.601 115.318C164.9 115.117 165.05 114.869 165.05 114.574C165.05 114.324 164.953 114.117 164.76 113.955C164.571 113.792 164.275 113.667 163.874 113.58L162.385 113.267C161.548 113.093 160.929 112.799 160.527 112.386C160.125 111.97 159.927 111.443 159.93 110.807C159.927 110.269 160.072 109.803 160.368 109.409C160.667 109.011 161.082 108.705 161.612 108.489C162.146 108.269 162.762 108.159 163.459 108.159C164.482 108.159 165.286 108.377 165.874 108.812C166.464 109.248 166.83 109.837 166.97 110.58Z" fill="#424242"/>
<path d="M66.27 121.58V121.58C66.2701 121.68 66.2426 121.777 66.1908 121.862C66.1389 121.946 66.0647 122.015 65.9762 122.06C65.8878 122.105 65.7886 122.125 65.6897 122.117C65.5908 122.109 65.496 122.074 65.4157 122.016C65.4157 122.016 65.4157 122.016 65.4156 122.016L60.3033 118.298L60.3032 118.298C59.8695 117.983 59.347 117.813 58.8108 117.813C58.2746 117.813 57.7522 117.983 57.3184 118.298L57.3183 118.298L52.206 122.016C52.2059 122.016 52.2059 122.016 52.2059 122.016C52.1256 122.074 52.0308 122.109 51.9319 122.117C51.833 122.125 51.7338 122.105 51.6454 122.06C51.5569 122.015 51.4827 121.946 51.4308 121.862C51.379 121.777 51.3515 121.68 51.3516 121.58V121.58V106.695H66.27V121.58Z" fill="#FFCA00" stroke="#424242" stroke-width="2"/>
<path d="M58.2169 76.2091C58.5746 75.937 59.0699 75.937 59.4277 76.2091L61.7245 77.9561C62.3508 78.4325 63.1391 78.6437 63.9197 78.5443L66.7823 78.1797C67.2282 78.123 67.6571 78.3706 67.8309 78.7851L68.9465 81.4465C69.2507 82.1722 69.8278 82.7493 70.5535 83.0535L73.2148 84.1691C73.6294 84.3429 73.877 84.7718 73.8202 85.2177L73.4557 88.0803C73.3563 88.8609 73.5675 89.6492 74.0439 90.2755L75.7909 92.5723C76.063 92.9301 76.063 93.4254 75.7909 93.7831L74.0439 96.08C73.5675 96.7062 73.3563 97.4946 73.4557 98.2751L73.8202 101.138C73.877 101.584 73.6294 102.013 73.2148 102.186L70.5535 103.302C69.8278 103.606 69.2507 104.183 68.9465 104.909L67.8309 107.57C67.6571 107.985 67.2282 108.232 66.7823 108.176L63.9197 107.811C63.1391 107.712 62.3508 107.923 61.7245 108.399L59.4277 110.146C59.0699 110.418 58.5746 110.418 58.2169 110.146L55.92 108.399C55.2938 107.923 54.5054 107.712 53.7248 107.811L50.8622 108.176C50.4164 108.232 49.9874 107.985 49.8136 107.57L48.698 104.909C48.3939 104.183 47.8167 103.606 47.0911 103.302L44.4297 102.186C44.0152 102.013 43.7675 101.584 43.8243 101.138L44.1888 98.2751C44.2882 97.4946 44.077 96.7062 43.6006 96.08L41.8536 93.7831C41.5815 93.4254 41.5815 92.9301 41.8536 92.5723L43.6006 90.2755C44.077 89.6492 44.2882 88.8609 44.1888 88.0803L43.8243 85.2177C43.7675 84.7718 44.0152 84.3429 44.4297 84.1691L47.0911 83.0535C47.8167 82.7493 48.3939 82.1722 48.698 81.4465L49.8136 78.7851C49.9874 78.3706 50.4164 78.123 50.8622 78.1797L53.7248 78.5443C54.5054 78.6437 55.2938 78.4325 55.92 77.9561L58.2169 76.2091Z" fill="#FEF3CB" stroke="#424242" stroke-width="2"/>
<path d="M65.6197 88.0844L56.2769 97.4271L52.0302 93.1804" stroke="#424242" stroke-width="2" stroke-linecap="round" stroke-linejoin="round"/>
<path d="M360.481 106V94.3636H367.936V96.1307H362.589V99.2898H367.424V101.057H362.589V106H360.481ZM369.64 106V97.2727H371.634V98.7273H371.725C371.884 98.2235 372.157 97.8352 372.544 97.5625C372.934 97.286 373.379 97.1477 373.879 97.1477C373.992 97.1477 374.119 97.1534 374.259 97.1648C374.403 97.1723 374.523 97.1856 374.617 97.2045V99.0966C374.53 99.0663 374.392 99.0398 374.203 99.017C374.017 98.9905 373.837 98.9773 373.663 98.9773C373.288 98.9773 372.951 99.0587 372.652 99.2216C372.356 99.3807 372.123 99.6023 371.953 99.8864C371.782 100.17 371.697 100.498 371.697 100.869V106H369.64ZM379.488 106.17C378.613 106.17 377.857 105.989 377.221 105.625C376.589 105.258 376.102 104.739 375.761 104.068C375.42 103.394 375.25 102.6 375.25 101.688C375.25 100.79 375.42 100.002 375.761 99.3239C376.106 98.642 376.587 98.1117 377.204 97.733C377.822 97.3504 378.547 97.1591 379.38 97.1591C379.918 97.1591 380.426 97.2462 380.903 97.4205C381.384 97.5909 381.808 97.8561 382.176 98.2159C382.547 98.5758 382.839 99.0341 383.051 99.5909C383.263 100.144 383.369 100.803 383.369 101.568V102.199H376.215V100.812H381.397C381.393 100.419 381.308 100.068 381.142 99.7614C380.975 99.4508 380.742 99.2064 380.443 99.0284C380.147 98.8504 379.803 98.7614 379.409 98.7614C378.988 98.7614 378.619 98.8636 378.301 99.0682C377.982 99.2689 377.734 99.5341 377.556 99.8636C377.382 100.189 377.293 100.547 377.289 100.938V102.148C377.289 102.655 377.382 103.091 377.568 103.455C377.753 103.814 378.013 104.091 378.346 104.284C378.679 104.473 379.07 104.568 379.517 104.568C379.816 104.568 380.087 104.527 380.329 104.443C380.572 104.356 380.782 104.229 380.96 104.062C381.138 103.896 381.272 103.689 381.363 103.443L383.284 103.659C383.162 104.167 382.931 104.61 382.59 104.989C382.253 105.364 381.822 105.655 381.295 105.864C380.768 106.068 380.166 106.17 379.488 106.17ZM388.973 106.17C388.098 106.17 387.342 105.989 386.706 105.625C386.073 105.258 385.586 104.739 385.245 104.068C384.904 103.394 384.734 102.6 384.734 101.688C384.734 100.79 384.904 100.002 385.245 99.3239C385.59 98.642 386.071 98.1117 386.688 97.733C387.306 97.3504 388.031 97.1591 388.865 97.1591C389.402 97.1591 389.91 97.2462 390.387 97.4205C390.868 97.5909 391.293 97.8561 391.66 98.2159C392.031 98.5758 392.323 99.0341 392.535 99.5909C392.747 100.144 392.853 100.803 392.853 101.568V102.199H385.7V100.812H390.882C390.878 100.419 390.793 100.068 390.626 99.7614C390.459 99.4508 390.226 99.2064 389.927 99.0284C389.632 98.8504 389.287 98.7614 388.893 98.7614C388.473 98.7614 388.103 98.8636 387.785 99.0682C387.467 99.2689 387.219 99.5341 387.041 99.8636C386.866 100.189 386.777 100.547 386.774 100.938V102.148C386.774 102.655 386.866 103.091 387.052 103.455C387.238 103.814 387.497 104.091 387.831 104.284C388.164 104.473 388.554 104.568 389.001 104.568C389.3 104.568 389.571 104.527 389.813 104.443C390.056 104.356 390.266 104.229 390.444 104.062C390.622 103.896 390.757 103.689 390.848 103.443L392.768 103.659C392.647 104.167 392.416 104.61 392.075 104.989C391.738 105.364 391.306 105.655 390.779 105.864C390.253 106.068 389.651 106.17 388.973 106.17ZM404.977 97.5625C404.924 97.0663 404.7 96.6799 404.306 96.4034C403.916 96.1269 403.409 95.9886 402.784 95.9886C402.344 95.9886 401.967 96.0549 401.653 96.1875C401.339 96.3201 401.098 96.5 400.931 96.7273C400.765 96.9545 400.679 97.214 400.676 97.5057C400.676 97.7481 400.731 97.9583 400.84 98.1364C400.954 98.3144 401.107 98.4659 401.301 98.5909C401.494 98.7121 401.708 98.8144 401.943 98.8977C402.178 98.9811 402.414 99.0511 402.653 99.108L403.744 99.3807C404.183 99.483 404.606 99.6212 405.011 99.7955C405.42 99.9697 405.786 100.189 406.107 100.455C406.433 100.72 406.691 101.04 406.88 101.415C407.07 101.79 407.164 102.229 407.164 102.733C407.164 103.415 406.99 104.015 406.642 104.534C406.293 105.049 405.789 105.453 405.13 105.744C404.475 106.032 403.681 106.176 402.75 106.176C401.844 106.176 401.058 106.036 400.392 105.756C399.729 105.475 399.21 105.066 398.835 104.528C398.464 103.991 398.263 103.335 398.232 102.562H400.306C400.337 102.968 400.462 103.305 400.681 103.574C400.901 103.843 401.187 104.044 401.539 104.176C401.895 104.309 402.293 104.375 402.732 104.375C403.191 104.375 403.592 104.307 403.937 104.17C404.286 104.03 404.558 103.837 404.755 103.591C404.952 103.341 405.053 103.049 405.056 102.716C405.053 102.413 404.964 102.163 404.789 101.966C404.615 101.765 404.371 101.598 404.056 101.466C403.746 101.33 403.382 101.208 402.965 101.102L401.642 100.761C400.683 100.515 399.926 100.142 399.369 99.642C398.816 99.1383 398.539 98.4697 398.539 97.6364C398.539 96.9508 398.725 96.3504 399.096 95.8352C399.471 95.3201 399.981 94.9205 400.625 94.6364C401.268 94.3485 401.998 94.2045 402.812 94.2045C403.638 94.2045 404.361 94.3485 404.982 94.6364C405.607 94.9205 406.098 95.3163 406.454 95.8239C406.81 96.3277 406.994 96.9072 407.005 97.5625H404.977ZM411.009 100.886V106H408.953V94.3636H410.964V98.7557H411.066C411.271 98.2633 411.587 97.875 412.015 97.5909C412.447 97.303 412.996 97.1591 413.663 97.1591C414.269 97.1591 414.797 97.286 415.248 97.5398C415.699 97.7936 416.047 98.1648 416.294 98.6534C416.544 99.142 416.669 99.7386 416.669 100.443V106H414.612V100.761C414.612 100.174 414.46 99.7178 414.157 99.392C413.858 99.0625 413.438 98.8977 412.896 98.8977C412.532 98.8977 412.206 98.9773 411.919 99.1364C411.634 99.2917 411.411 99.517 411.248 99.8125C411.089 100.108 411.009 100.466 411.009 100.886ZM418.765 106V97.2727H420.822V106H418.765ZM419.799 96.0341C419.473 96.0341 419.193 95.9261 418.958 95.7102C418.723 95.4905 418.606 95.2273 418.606 94.9205C418.606 94.6098 418.723 94.3466 418.958 94.1307C419.193 93.911 419.473 93.8011 419.799 93.8011C420.129 93.8011 420.409 93.911 420.64 94.1307C420.875 94.3466 420.992 94.6098 420.992 94.9205C420.992 95.2273 420.875 95.4905 420.64 95.7102C420.409 95.9261 420.129 96.0341 419.799 96.0341ZM422.937 109.273V97.2727H424.96V98.7159H425.079C425.185 98.5038 425.335 98.2784 425.528 98.0398C425.721 97.7973 425.982 97.5909 426.312 97.4205C426.642 97.2462 427.062 97.1591 427.573 97.1591C428.248 97.1591 428.856 97.3314 429.397 97.6761C429.943 98.017 430.375 98.5227 430.693 99.1932C431.015 99.8598 431.176 100.678 431.176 101.648C431.176 102.606 431.018 103.42 430.704 104.091C430.39 104.761 429.962 105.273 429.42 105.625C428.878 105.977 428.265 106.153 427.579 106.153C427.079 106.153 426.664 106.07 426.335 105.903C426.005 105.737 425.74 105.536 425.539 105.301C425.342 105.062 425.189 104.837 425.079 104.625H424.994V109.273H422.937ZM424.954 101.636C424.954 102.201 425.034 102.695 425.193 103.119C425.356 103.544 425.589 103.875 425.892 104.114C426.198 104.348 426.57 104.466 427.005 104.466C427.46 104.466 427.84 104.345 428.147 104.102C428.454 103.856 428.685 103.521 428.84 103.097C429 102.669 429.079 102.182 429.079 101.636C429.079 101.095 429.001 100.614 428.846 100.193C428.691 99.7727 428.46 99.4432 428.153 99.2045C427.846 98.9659 427.464 98.8466 427.005 98.8466C426.566 98.8466 426.193 98.9621 425.886 99.1932C425.579 99.4242 425.346 99.7481 425.187 100.165C425.032 100.581 424.954 101.072 424.954 101.636ZM432.937 109.273V97.2727H434.96V98.7159H435.079C435.185 98.5038 435.335 98.2784 435.528 98.0398C435.721 97.7973 435.982 97.5909 436.312 97.4205C436.642 97.2462 437.062 97.1591 437.573 97.1591C438.248 97.1591 438.856 97.3314 439.397 97.6761C439.943 98.017 440.375 98.5227 440.693 99.1932C441.015 99.8598 441.176 100.678 441.176 101.648C441.176 102.606 441.018 103.42 440.704 104.091C440.39 104.761 439.962 105.273 439.42 105.625C438.878 105.977 438.265 106.153 437.579 106.153C437.079 106.153 436.664 106.07 436.335 105.903C436.005 105.737 435.74 105.536 435.539 105.301C435.342 105.062 435.189 104.837 435.079 104.625H434.994V109.273H432.937ZM434.954 101.636C434.954 102.201 435.034 102.695 435.193 103.119C435.356 103.544 435.589 103.875 435.892 104.114C436.198 104.348 436.57 104.466 437.005 104.466C437.46 104.466 437.84 104.345 438.147 104.102C438.454 103.856 438.685 103.521 438.84 103.097C439 102.669 439.079 102.182 439.079 101.636C439.079 101.095 439.001 100.614 438.846 100.193C438.691 99.7727 438.46 99.4432 438.153 99.2045C437.846 98.9659 437.464 98.8466 437.005 98.8466C436.566 98.8466 436.193 98.9621 435.886 99.1932C435.579 99.4242 435.346 99.7481 435.187 100.165C435.032 100.581 434.954 101.072 434.954 101.636ZM442.937 106V97.2727H444.994V106H442.937ZM443.971 96.0341C443.645 96.0341 443.365 95.9261 443.13 95.7102C442.895 95.4905 442.778 95.2273 442.778 94.9205C442.778 94.6098 442.895 94.3466 443.13 94.1307C443.365 93.911 443.645 93.8011 443.971 93.8011C444.301 93.8011 444.581 93.911 444.812 94.1307C445.047 94.3466 445.164 94.6098 445.164 94.9205C445.164 95.2273 445.047 95.4905 444.812 95.7102C444.581 95.9261 444.301 96.0341 443.971 96.0341ZM449.166 100.886V106H447.109V97.2727H449.075V98.7557H449.177C449.378 98.267 449.698 97.8788 450.137 97.5909C450.581 97.303 451.128 97.1591 451.779 97.1591C452.382 97.1591 452.906 97.2879 453.353 97.5455C453.804 97.803 454.152 98.1761 454.399 98.6648C454.649 99.1534 454.772 99.7462 454.768 100.443V106H452.711V100.761C452.711 100.178 452.56 99.7216 452.257 99.392C451.957 99.0625 451.543 98.8977 451.012 98.8977C450.652 98.8977 450.332 98.9773 450.052 99.1364C449.776 99.2917 449.558 99.517 449.399 99.8125C449.243 100.108 449.166 100.466 449.166 100.886ZM460.654 109.455C459.916 109.455 459.281 109.354 458.751 109.153C458.221 108.956 457.795 108.691 457.473 108.358C457.151 108.025 456.927 107.655 456.802 107.25L458.654 106.801C458.738 106.972 458.859 107.14 459.018 107.307C459.177 107.477 459.391 107.617 459.66 107.727C459.933 107.841 460.276 107.898 460.688 107.898C461.272 107.898 461.755 107.756 462.137 107.472C462.52 107.191 462.711 106.729 462.711 106.085V104.432H462.609C462.503 104.644 462.348 104.862 462.143 105.085C461.942 105.309 461.675 105.496 461.342 105.648C461.012 105.799 460.598 105.875 460.098 105.875C459.427 105.875 458.819 105.718 458.274 105.403C457.732 105.085 457.3 104.612 456.978 103.983C456.66 103.35 456.501 102.559 456.501 101.608C456.501 100.65 456.66 99.8409 456.978 99.1818C457.3 98.5189 457.734 98.017 458.279 97.6761C458.825 97.3314 459.433 97.1591 460.103 97.1591C460.615 97.1591 461.035 97.2462 461.365 97.4205C461.698 97.5909 461.963 97.7973 462.16 98.0398C462.357 98.2784 462.507 98.5038 462.609 98.7159H462.723V97.2727H464.751V106.142C464.751 106.888 464.573 107.506 464.217 107.994C463.861 108.483 463.374 108.848 462.757 109.091C462.139 109.333 461.438 109.455 460.654 109.455ZM460.671 104.261C461.107 104.261 461.478 104.155 461.785 103.943C462.092 103.731 462.325 103.426 462.484 103.028C462.643 102.631 462.723 102.153 462.723 101.597C462.723 101.047 462.643 100.566 462.484 100.153C462.329 99.7405 462.098 99.4205 461.791 99.1932C461.488 98.9621 461.115 98.8466 460.671 98.8466C460.213 98.8466 459.831 98.9659 459.524 99.2045C459.217 99.4432 458.986 99.7708 458.831 100.188C458.675 100.6 458.598 101.07 458.598 101.597C458.598 102.131 458.675 102.598 458.831 103C458.99 103.398 459.223 103.708 459.529 103.932C459.84 104.152 460.221 104.261 460.671 104.261Z" fill="#424242"/>
<path d="M335.571 106.009V98.3873H340.042L343.193 101.481V106.009H335.571Z" stroke="#424242" stroke-width="2" stroke-linejoin="round"/>
<circle cx="339.382" cy="115.669" r="3.81096" stroke="#424242" stroke-width="2"/>
<path d="M333.705 114.707H330.722V93.5386H339.883C340.801 93.5386 341.69 93.8672 342.387 94.4651L346.698 98.1597C347.551 98.8909 348.042 99.9584 348.042 101.082V112.782C348.042 113.845 347.18 114.707 346.117 114.707H345.059" stroke="#424242" stroke-width="2"/>
<circle cx="308.592" cy="115.669" r="3.81096" stroke="#424242" stroke-width="2"/>
<path d="M301.953 114.707H298.14C295.254 114.707 294.292 113.745 294.292 110.858V89.5571C294.292 86.6705 295.254 85.7083 298.14 85.7083H302.354M315.231 114.707H330.722V89.5571C330.722 86.6705 329.76 85.7083 326.873 85.7083H323.854" stroke="#424242" stroke-width="2"/>
<mask id="path-16-inside-2_1592_10537" fill="white">
<path fill-rule="evenodd" clip-rule="evenodd" d="M308.083 96.3344C309.416 97.925 310.879 99.4014 312.458 100.748C314.037 99.4014 315.501 97.925 316.833 96.3344C318.833 93.9456 321.208 90.3881 321.208 86.9981C321.212 85.8486 320.988 84.7097 320.548 83.6474C320.109 82.5851 319.463 81.6205 318.648 80.8094C317.425 79.5846 315.865 78.7504 314.167 78.4123C312.469 78.0742 310.709 78.2473 309.11 78.9099C307.51 79.5725 306.143 80.6947 305.182 82.1344C304.22 83.5742 303.707 85.2668 303.708 86.9981C303.708 90.3881 306.083 93.9456 308.083 96.3344ZM313.104 89.2917C314.094 89.2917 314.896 88.4895 314.896 87.5C314.896 86.5105 314.094 85.7083 313.104 85.7083C312.115 85.7083 311.313 86.5105 311.313 87.5C311.313 88.4895 312.115 89.2917 313.104 89.2917Z"/>
</mask>
<path fill-rule="evenodd" clip-rule="evenodd" d="M308.083 96.3344C309.416 97.925 310.879 99.4014 312.458 100.748C314.037 99.4014 315.501 97.925 316.833 96.3344C318.833 93.9456 321.208 90.3881 321.208 86.9981C321.212 85.8486 320.988 84.7097 320.548 83.6474C320.109 82.5851 319.463 81.6205 318.648 80.8094C317.425 79.5846 315.865 78.7504 314.167 78.4123C312.469 78.0742 310.709 78.2473 309.11 78.9099C307.51 79.5725 306.143 80.6947 305.182 82.1344C304.22 83.5742 303.707 85.2668 303.708 86.9981C303.708 90.3881 306.083 93.9456 308.083 96.3344ZM313.104 89.2917C314.094 89.2917 314.896 88.4895 314.896 87.5C314.896 86.5105 314.094 85.7083 313.104 85.7083C312.115 85.7083 311.313 86.5105 311.313 87.5C311.313 88.4895 312.115 89.2917 313.104 89.2917Z" fill="#FFCA00"/>
<path d="M312.458 100.748L311.296 102.111L312.458 103.103L313.621 102.111L312.458 100.748ZM308.083 96.3344L306.71 97.4845L306.71 97.485L308.083 96.3344ZM316.833 96.3344L318.207 97.485L318.207 97.4845L316.833 96.3344ZM321.208 86.9981L319.417 86.9924V86.9981H321.208ZM320.548 83.6474L318.893 84.3322V84.3322L320.548 83.6474ZM318.648 80.8094L317.381 82.0757L317.384 82.0791L318.648 80.8094ZM309.11 78.9099L309.795 80.5652V80.5652L309.11 78.9099ZM305.182 82.1344L303.692 81.1394H303.692L305.182 82.1344ZM303.708 86.9981H305.5L305.5 86.9972L303.708 86.9981ZM313.621 99.385C312.118 98.1031 310.725 96.6978 309.457 95.1837L306.71 97.485C308.107 99.1522 309.641 100.7 311.296 102.111L313.621 99.385ZM315.46 95.1837C314.191 96.6978 312.798 98.1031 311.296 99.385L313.621 102.111C315.276 100.7 316.81 99.1522 318.207 97.485L315.46 95.1837ZM319.417 86.9981C319.417 88.2934 318.956 89.7356 318.183 91.2107C317.419 92.6711 316.41 94.0493 315.46 95.1842L318.207 97.4845C319.257 96.2307 320.435 94.6357 321.358 92.8727C322.273 91.1244 323 89.0929 323 86.9981H319.417ZM318.893 84.3322C319.241 85.1756 319.42 86.0798 319.417 86.9924L323 87.0038C323.004 85.6173 322.734 84.2437 322.204 82.9625L318.893 84.3322ZM317.384 82.0791C318.031 82.723 318.544 83.4888 318.893 84.3322L322.204 82.9625C321.674 81.6813 320.895 80.5179 319.912 79.5397L317.384 82.0791ZM313.817 80.1694C315.168 80.4383 316.408 81.1017 317.381 82.0757L319.916 79.5431C318.442 78.0675 316.563 77.0625 314.517 76.6551L313.817 80.1694ZM309.795 80.5652C311.067 80.0383 312.467 79.9006 313.817 80.1694L314.517 76.6551C312.471 76.2478 310.351 76.4564 308.424 77.2546L309.795 80.5652ZM306.672 83.1294C307.436 81.9845 308.523 81.0921 309.795 80.5652L308.424 77.2546C306.497 78.0529 304.85 79.4048 303.692 81.1394L306.672 83.1294ZM305.5 86.9972C305.499 85.6205 305.907 84.2744 306.672 83.1294L303.692 81.1394C302.533 82.874 301.916 84.9132 301.917 86.999L305.5 86.9972ZM309.457 95.1842C308.507 94.0493 307.498 92.6711 306.733 91.2107C305.961 89.7356 305.5 88.2934 305.5 86.9981H301.917C301.917 89.0929 302.643 91.1244 303.559 92.8727C304.482 94.6357 305.66 96.2307 306.71 97.4845L309.457 95.1842ZM313.104 87.5H313.104V91.0833C315.083 91.0833 316.688 89.479 316.688 87.5H313.104ZM313.104 87.5H313.104H316.688C316.688 85.521 315.083 83.9167 313.104 83.9167V87.5ZM313.104 87.5H313.104V83.9167C311.125 83.9167 309.521 85.521 309.521 87.5H313.104ZM313.104 87.5H313.104H309.521C309.521 89.479 311.125 91.0833 313.104 91.0833V87.5Z" fill="#424242" mask="url(#path-16-inside-2_1592_10537)"/>
<line x1="294.292" y1="122.083" x2="348.042" y2="122.083" stroke="#424242" stroke-width="2.5" stroke-dasharray="3.58 3.58"/>
<path d="M614.775 98.2898H612.65C612.589 97.9413 612.477 97.6326 612.314 97.3636C612.152 97.0909 611.949 96.8598 611.706 96.6705C611.464 96.4811 611.188 96.339 610.877 96.2443C610.57 96.1458 610.239 96.0966 609.883 96.0966C609.25 96.0966 608.689 96.2557 608.201 96.5739C607.712 96.8883 607.33 97.3504 607.053 97.9602C606.777 98.5663 606.638 99.3068 606.638 100.182C606.638 101.072 606.777 101.822 607.053 102.432C607.333 103.038 607.716 103.496 608.201 103.807C608.689 104.114 609.248 104.267 609.877 104.267C610.225 104.267 610.551 104.222 610.854 104.131C611.161 104.036 611.436 103.898 611.678 103.716C611.924 103.534 612.131 103.311 612.297 103.045C612.468 102.78 612.585 102.477 612.65 102.136L614.775 102.148C614.695 102.701 614.523 103.22 614.258 103.705C613.996 104.189 613.653 104.617 613.229 104.989C612.805 105.356 612.309 105.644 611.741 105.852C611.172 106.057 610.542 106.159 609.849 106.159C608.826 106.159 607.913 105.922 607.11 105.449C606.307 104.975 605.674 104.292 605.212 103.398C604.75 102.504 604.519 101.432 604.519 100.182C604.519 98.928 604.752 97.8561 605.218 96.9659C605.684 96.072 606.318 95.3883 607.121 94.9148C607.924 94.4413 608.833 94.2045 609.849 94.2045C610.496 94.2045 611.099 94.2955 611.655 94.4773C612.212 94.6591 612.708 94.9261 613.144 95.2784C613.58 95.6269 613.938 96.0549 614.218 96.5625C614.502 97.0663 614.688 97.642 614.775 98.2898ZM619.125 106.176C618.572 106.176 618.074 106.078 617.631 105.881C617.192 105.68 616.843 105.384 616.586 104.994C616.332 104.604 616.205 104.123 616.205 103.551C616.205 103.059 616.296 102.652 616.478 102.33C616.66 102.008 616.908 101.75 617.222 101.557C617.536 101.364 617.891 101.218 618.285 101.119C618.682 101.017 619.093 100.943 619.518 100.898C620.029 100.845 620.444 100.797 620.762 100.756C621.08 100.71 621.311 100.642 621.455 100.551C621.603 100.456 621.677 100.311 621.677 100.114V100.08C621.677 99.6515 621.55 99.3201 621.296 99.0852C621.042 98.8504 620.677 98.733 620.199 98.733C619.696 98.733 619.296 98.8428 619 99.0625C618.709 99.2822 618.512 99.5417 618.41 99.8409L616.489 99.5682C616.641 99.0379 616.891 98.5947 617.239 98.2386C617.588 97.8788 618.014 97.6098 618.518 97.4318C619.021 97.25 619.578 97.1591 620.188 97.1591C620.608 97.1591 621.027 97.2083 621.444 97.3068C621.86 97.4053 622.241 97.5682 622.586 97.7955C622.93 98.0189 623.207 98.3239 623.415 98.7102C623.627 99.0966 623.733 99.5795 623.733 100.159V106H621.756V104.801H621.688C621.563 105.044 621.387 105.271 621.16 105.483C620.936 105.691 620.654 105.86 620.313 105.989C619.976 106.114 619.58 106.176 619.125 106.176ZM619.66 104.665C620.072 104.665 620.43 104.583 620.733 104.42C621.036 104.254 621.269 104.034 621.432 103.761C621.599 103.489 621.682 103.191 621.682 102.869V101.841C621.618 101.894 621.508 101.943 621.353 101.989C621.201 102.034 621.031 102.074 620.841 102.108C620.652 102.142 620.465 102.172 620.279 102.199C620.093 102.225 619.932 102.248 619.796 102.267C619.489 102.309 619.215 102.377 618.972 102.472C618.73 102.566 618.538 102.699 618.398 102.869C618.258 103.036 618.188 103.252 618.188 103.517C618.188 103.896 618.326 104.182 618.603 104.375C618.879 104.568 619.232 104.665 619.66 104.665ZM632.699 99.5795L630.824 99.7841C630.771 99.5947 630.679 99.4167 630.546 99.25C630.417 99.0833 630.243 98.9489 630.023 98.8466C629.804 98.7443 629.535 98.6932 629.216 98.6932C628.788 98.6932 628.429 98.786 628.137 98.9716C627.849 99.1572 627.707 99.3977 627.711 99.6932C627.707 99.947 627.8 100.153 627.989 100.312C628.182 100.472 628.5 100.602 628.944 100.705L630.432 101.023C631.258 101.201 631.872 101.483 632.273 101.869C632.679 102.256 632.883 102.761 632.887 103.386C632.883 103.936 632.722 104.42 632.404 104.841C632.09 105.258 631.652 105.583 631.091 105.818C630.531 106.053 629.887 106.17 629.16 106.17C628.091 106.17 627.232 105.947 626.58 105.5C625.929 105.049 625.54 104.422 625.415 103.619L627.421 103.426C627.512 103.82 627.705 104.117 628 104.318C628.296 104.519 628.68 104.619 629.154 104.619C629.643 104.619 630.035 104.519 630.33 104.318C630.629 104.117 630.779 103.869 630.779 103.574C630.779 103.324 630.682 103.117 630.489 102.955C630.3 102.792 630.004 102.667 629.603 102.58L628.114 102.267C627.277 102.093 626.658 101.799 626.256 101.386C625.855 100.97 625.656 100.443 625.66 99.8068C625.656 99.2689 625.802 98.803 626.097 98.4091C626.396 98.0114 626.811 97.7045 627.341 97.4886C627.875 97.2689 628.491 97.1591 629.188 97.1591C630.211 97.1591 631.016 97.3769 631.603 97.8125C632.194 98.2481 632.559 98.8371 632.699 99.5795ZM636.64 100.886V106H634.583V94.3636H636.594V98.7557H636.697C636.901 98.2633 637.217 97.875 637.645 97.5909C638.077 97.303 638.626 97.1591 639.293 97.1591C639.899 97.1591 640.428 97.286 640.878 97.5398C641.329 97.7936 641.678 98.1648 641.924 98.6534C642.174 99.142 642.299 99.7386 642.299 100.443V106H640.242V100.761C640.242 100.174 640.09 99.7178 639.787 99.392C639.488 99.0625 639.068 98.8977 638.526 98.8977C638.162 98.8977 637.837 98.9773 637.549 99.1364C637.265 99.2917 637.041 99.517 636.878 99.8125C636.719 100.108 636.64 100.466 636.64 100.886ZM658.853 100.182C658.853 101.436 658.618 102.509 658.148 103.403C657.682 104.294 657.046 104.975 656.239 105.449C655.436 105.922 654.525 106.159 653.506 106.159C652.487 106.159 651.574 105.922 650.768 105.449C649.965 104.972 649.328 104.288 648.858 103.398C648.393 102.504 648.16 101.432 648.16 100.182C648.16 98.928 648.393 97.8561 648.858 96.9659C649.328 96.072 649.965 95.3883 650.768 94.9148C651.574 94.4413 652.487 94.2045 653.506 94.2045C654.525 94.2045 655.436 94.4413 656.239 94.9148C657.046 95.3883 657.682 96.072 658.148 96.9659C658.618 97.8561 658.853 98.928 658.853 100.182ZM656.733 100.182C656.733 99.2992 656.595 98.5549 656.319 97.9489C656.046 97.339 655.667 96.8788 655.182 96.5682C654.697 96.2538 654.139 96.0966 653.506 96.0966C652.874 96.0966 652.315 96.2538 651.83 96.5682C651.345 96.8788 650.965 97.339 650.688 97.9489C650.415 98.5549 650.279 99.2992 650.279 100.182C650.279 101.064 650.415 101.811 650.688 102.42C650.965 103.027 651.345 103.487 651.83 103.801C652.315 104.112 652.874 104.267 653.506 104.267C654.139 104.267 654.697 104.112 655.182 103.801C655.667 103.487 656.046 103.027 656.319 102.42C656.595 101.811 656.733 101.064 656.733 100.182ZM662.812 100.886V106H660.755V97.2727H662.721V98.7557H662.823C663.024 98.267 663.344 97.8788 663.783 97.5909C664.226 97.303 664.774 97.1591 665.425 97.1591C666.027 97.1591 666.552 97.2879 666.999 97.5455C667.45 97.803 667.798 98.1761 668.045 98.6648C668.295 99.1534 668.418 99.7462 668.414 100.443V106H666.357V100.761C666.357 100.178 666.206 99.7216 665.902 99.392C665.603 99.0625 665.188 98.8977 664.658 98.8977C664.298 98.8977 663.978 98.9773 663.698 99.1364C663.421 99.2917 663.204 99.517 663.045 99.8125C662.889 100.108 662.812 100.466 662.812 100.886ZM678.508 106H674.564V94.3636H678.587C679.742 94.3636 680.735 94.5966 681.564 95.0625C682.398 95.5246 683.038 96.1894 683.485 97.0568C683.932 97.9242 684.155 98.9621 684.155 100.17C684.155 101.383 683.93 102.424 683.479 103.295C683.032 104.167 682.386 104.835 681.542 105.301C680.701 105.767 679.689 106 678.508 106ZM676.672 104.176H678.405C679.216 104.176 679.892 104.028 680.434 103.733C680.975 103.434 681.383 102.989 681.655 102.398C681.928 101.803 682.064 101.061 682.064 100.17C682.064 99.2803 681.928 98.5417 681.655 97.9545C681.383 97.3636 680.979 96.9223 680.445 96.6307C679.915 96.3352 679.256 96.1875 678.468 96.1875H676.672V104.176ZM689.931 106.17C689.056 106.17 688.3 105.989 687.664 105.625C687.031 105.258 686.545 104.739 686.204 104.068C685.863 103.394 685.692 102.6 685.692 101.688C685.692 100.79 685.863 100.002 686.204 99.3239C686.548 98.642 687.029 98.1117 687.647 97.733C688.264 97.3504 688.99 97.1591 689.823 97.1591C690.361 97.1591 690.868 97.2462 691.346 97.4205C691.827 97.5909 692.251 97.8561 692.618 98.2159C692.99 98.5758 693.281 99.0341 693.493 99.5909C693.706 100.144 693.812 100.803 693.812 101.568V102.199H686.658V100.812H691.84C691.836 100.419 691.751 100.068 691.584 99.7614C691.418 99.4508 691.185 99.2064 690.885 99.0284C690.59 98.8504 690.245 98.7614 689.851 98.7614C689.431 98.7614 689.062 98.8636 688.743 99.0682C688.425 99.2689 688.177 99.5341 687.999 99.8636C687.825 100.189 687.736 100.547 687.732 100.938V102.148C687.732 102.655 687.825 103.091 688.01 103.455C688.196 103.814 688.456 104.091 688.789 104.284C689.122 104.473 689.512 104.568 689.959 104.568C690.259 104.568 690.529 104.527 690.772 104.443C691.014 104.356 691.224 104.229 691.402 104.062C691.581 103.896 691.715 103.689 691.806 103.443L693.726 103.659C693.605 104.167 693.374 104.61 693.033 104.989C692.696 105.364 692.264 105.655 691.738 105.864C691.211 106.068 690.609 106.17 689.931 106.17ZM697.608 94.3636V106H695.552V94.3636H697.608ZM699.724 106V97.2727H701.78V106H699.724ZM700.758 96.0341C700.432 96.0341 700.152 95.9261 699.917 95.7102C699.682 95.4905 699.564 95.2273 699.564 94.9205C699.564 94.6098 699.682 94.3466 699.917 94.1307C700.152 93.911 700.432 93.8011 700.758 93.8011C701.087 93.8011 701.367 93.911 701.599 94.1307C701.833 94.3466 701.951 94.6098 701.951 94.9205C701.951 95.2273 701.833 95.4905 701.599 95.7102C701.367 95.9261 701.087 96.0341 700.758 96.0341ZM711.691 97.2727L708.583 106H706.31L703.202 97.2727H705.395L707.401 103.756H707.492L709.503 97.2727H711.691ZM716.681 106.17C715.806 106.17 715.05 105.989 714.414 105.625C713.781 105.258 713.295 104.739 712.954 104.068C712.613 103.394 712.442 102.6 712.442 101.688C712.442 100.79 712.613 100.002 712.954 99.3239C713.298 98.642 713.779 98.1117 714.397 97.733C715.014 97.3504 715.74 97.1591 716.573 97.1591C717.111 97.1591 717.618 97.2462 718.096 97.4205C718.577 97.5909 719.001 97.8561 719.368 98.2159C719.74 98.5758 720.031 99.0341 720.243 99.5909C720.456 100.144 720.562 100.803 720.562 101.568V102.199H713.408V100.812H718.59C718.586 100.419 718.501 100.068 718.334 99.7614C718.168 99.4508 717.935 99.2064 717.635 99.0284C717.34 98.8504 716.995 98.7614 716.601 98.7614C716.181 98.7614 715.812 98.8636 715.493 99.0682C715.175 99.2689 714.927 99.5341 714.749 99.8636C714.575 100.189 714.486 100.547 714.482 100.938V102.148C714.482 102.655 714.575 103.091 714.76 103.455C714.946 103.814 715.206 104.091 715.539 104.284C715.872 104.473 716.262 104.568 716.709 104.568C717.009 104.568 717.279 104.527 717.522 104.443C717.764 104.356 717.974 104.229 718.152 104.062C718.331 103.896 718.465 103.689 718.556 103.443L720.476 103.659C720.355 104.167 720.124 104.61 719.783 104.989C719.446 105.364 719.014 105.655 718.488 105.864C717.961 106.068 717.359 106.17 716.681 106.17ZM722.302 106V97.2727H724.296V98.7273H724.387C724.546 98.2235 724.819 97.8352 725.205 97.5625C725.595 97.286 726.04 97.1477 726.54 97.1477C726.654 97.1477 726.781 97.1534 726.921 97.1648C727.065 97.1723 727.184 97.1856 727.279 97.2045V99.0966C727.192 99.0663 727.054 99.0398 726.864 99.017C726.679 98.9905 726.499 98.9773 726.324 98.9773C725.949 98.9773 725.612 99.0587 725.313 99.2216C725.018 99.3807 724.785 99.6023 724.614 99.8864C724.444 100.17 724.358 100.498 724.358 100.869V106H722.302ZM730.189 109.273C729.909 109.273 729.65 109.25 729.411 109.205C729.176 109.163 728.989 109.114 728.849 109.057L729.326 107.455C729.625 107.542 729.892 107.583 730.127 107.58C730.362 107.576 730.568 107.502 730.746 107.358C730.928 107.218 731.081 106.983 731.206 106.653L731.383 106.182L728.218 97.2727H730.4L732.411 103.864H732.502L734.519 97.2727H736.706L733.212 107.057C733.049 107.519 732.833 107.915 732.564 108.244C732.295 108.578 731.966 108.831 731.576 109.006C731.189 109.184 730.727 109.273 730.189 109.273Z" fill="#424242"/>
<rect x="539.625" y="86.3501" width="53.1833" height="33.475" rx="4.375" stroke="#424242" stroke-width="2"/>
<path d="M588.792 82.1251H544" stroke="#424242" stroke-width="2"/>
<line x1="544" y1="93.3084" x2="551.167" y2="93.3084" stroke="#424242" stroke-width="2"/>
<line x1="579.833" y1="113.017" x2="587" y2="113.017" stroke="#424242" stroke-width="2"/>
<circle cx="565.5" cy="103.267" r="9.85417" fill="#FFCA00" stroke="#424242" stroke-width="1.79167"/>
<path d="M567.829 107.213L565.857 104.208C566.435 103.994 566.881 103.67 567.193 103.234C567.506 102.799 567.662 102.281 567.662 101.679V101.524H568.672V100.539H567.425C567.306 100.278 567.16 100.06 566.985 99.8857H568.672V98.9001H561.167V99.8857H563.791C564.583 99.8778 565.137 100.096 565.454 100.539H561.167V101.524H565.727C565.719 101.952 565.562 102.296 565.258 102.558C564.953 102.819 564.488 102.949 563.862 102.949H561.654V104.493H563.993L565.762 107.213H567.829Z" fill="#424242"/>
<path fill-rule="evenodd" clip-rule="evenodd" d="M827.125 80.9989L814 91.8242L827.125 102.65V97.5494H840.301C850.244 97.5494 851.494 118.075 833.994 121.825C867.744 121.825 861.494 87.957 840.301 87.957H827.125V80.9989Z" fill="#FFCA00"/>
<path d="M814 91.8242L813.364 91.0528L812.428 91.8242L813.364 92.5957L814 91.8242ZM827.125 80.9989H828.125V78.8779L826.489 80.2274L827.125 80.9989ZM827.125 102.65L826.489 103.421L828.125 104.771V102.65H827.125ZM827.125 97.5494V96.5494H826.125V97.5494H827.125ZM833.994 121.825L833.785 120.847L833.994 122.825V121.825ZM827.125 87.957H826.125V88.957H827.125V87.957ZM814.636 92.5957L827.761 81.7704L826.489 80.2274L813.364 91.0528L814.636 92.5957ZM827.761 101.878L814.636 91.0528L813.364 92.5957L826.489 103.421L827.761 101.878ZM826.125 97.5494V102.65H828.125V97.5494H826.125ZM827.125 98.5494H840.301V96.5494H827.125V98.5494ZM840.301 98.5494C842.393 98.5494 844.037 99.6112 845.124 101.346C846.225 103.105 846.74 105.552 846.445 108.169C845.86 113.354 842.103 119.065 833.785 120.847L834.204 122.803C843.386 120.836 847.754 114.409 848.432 108.393C848.769 105.41 848.201 102.491 846.819 100.284C845.421 98.0534 843.18 96.5494 840.301 96.5494V98.5494ZM833.994 122.825C842.592 122.825 848.779 120.668 852.837 117.303C856.906 113.929 858.748 109.408 858.751 104.892C858.759 95.9133 851.49 86.957 840.301 86.957V88.957C850.305 88.957 856.758 96.9349 856.751 104.89C856.748 108.841 855.149 112.788 851.56 115.764C847.96 118.749 842.272 120.825 833.994 120.825V122.825ZM840.301 86.957H827.125V88.957H840.301V86.957ZM826.125 80.9989V87.957H828.125V80.9989H826.125Z" fill="#424242"/>
<path d="M880.08 94.1591C879.322 94.1591 878.644 94.017 878.045 93.733C877.447 93.4451 876.972 93.0511 876.619 92.5511C876.271 92.0511 876.085 91.4792 876.062 90.8352H878.108C878.146 91.3125 878.352 91.7027 878.727 92.0057C879.102 92.3049 879.553 92.4545 880.08 92.4545C880.492 92.4545 880.86 92.3598 881.182 92.1705C881.504 91.9811 881.758 91.7178 881.943 91.3807C882.129 91.0436 882.22 90.6591 882.216 90.2273C882.22 89.7879 882.127 89.3977 881.938 89.0568C881.748 88.7159 881.489 88.4489 881.159 88.2557C880.83 88.0587 880.451 87.9602 880.023 87.9602C879.674 87.9564 879.331 88.0208 878.994 88.1534C878.657 88.286 878.39 88.4602 878.193 88.6761L876.29 88.3636L876.898 82.3636H883.648V84.125H878.642L878.307 87.2102H878.375C878.591 86.9564 878.896 86.7462 879.29 86.5795C879.684 86.4091 880.116 86.3239 880.585 86.3239C881.29 86.3239 881.919 86.4905 882.472 86.8239C883.025 87.1534 883.46 87.608 883.778 88.1875C884.097 88.767 884.256 89.4299 884.256 90.1761C884.256 90.9451 884.078 91.6307 883.722 92.233C883.369 92.8314 882.879 93.303 882.25 93.6477C881.625 93.9886 880.902 94.1591 880.08 94.1591ZM894.185 94H890.241V82.3636H894.264C895.42 82.3636 896.412 82.5966 897.241 83.0625C898.075 83.5246 898.715 84.1894 899.162 85.0568C899.609 85.9242 899.832 86.9621 899.832 88.1705C899.832 89.3826 899.607 90.4242 899.156 91.2955C898.709 92.1667 898.063 92.8352 897.219 93.3011C896.378 93.767 895.366 94 894.185 94ZM892.349 92.1761H894.082C894.893 92.1761 895.569 92.0284 896.111 91.733C896.652 91.4337 897.06 90.9886 897.332 90.3977C897.605 89.803 897.741 89.0606 897.741 88.1705C897.741 87.2803 897.605 86.5417 897.332 85.9545C897.06 85.3636 896.656 84.9223 896.122 84.6307C895.592 84.3352 894.933 84.1875 894.145 84.1875H892.349V92.1761ZM904.256 94.1761C903.703 94.1761 903.205 94.0777 902.761 93.8807C902.322 93.6799 901.973 93.3845 901.716 92.9943C901.462 92.6042 901.335 92.1231 901.335 91.5511C901.335 91.0587 901.426 90.6515 901.608 90.3295C901.79 90.0076 902.038 89.75 902.352 89.5568C902.667 89.3636 903.021 89.2178 903.415 89.1193C903.813 89.017 904.223 88.9432 904.648 88.8977C905.159 88.8447 905.574 88.7973 905.892 88.7557C906.21 88.7102 906.441 88.642 906.585 88.5511C906.733 88.4564 906.807 88.3106 906.807 88.1136V88.0795C906.807 87.6515 906.68 87.3201 906.426 87.0852C906.172 86.8504 905.807 86.733 905.33 86.733C904.826 86.733 904.426 86.8428 904.131 87.0625C903.839 87.2822 903.642 87.5417 903.54 87.8409L901.619 87.5682C901.771 87.0379 902.021 86.5947 902.369 86.2386C902.718 85.8788 903.144 85.6098 903.648 85.4318C904.152 85.25 904.708 85.1591 905.318 85.1591C905.739 85.1591 906.157 85.2083 906.574 85.3068C906.991 85.4053 907.371 85.5682 907.716 85.7955C908.061 86.0189 908.337 86.3239 908.545 86.7102C908.758 87.0966 908.864 87.5795 908.864 88.1591V94H906.886V92.8011H906.818C906.693 93.0436 906.517 93.2708 906.29 93.483C906.066 93.6913 905.784 93.8598 905.443 93.9886C905.106 94.1136 904.71 94.1761 904.256 94.1761ZM904.79 92.6648C905.203 92.6648 905.561 92.5833 905.864 92.4205C906.167 92.2538 906.4 92.0341 906.562 91.7614C906.729 91.4886 906.812 91.1913 906.812 90.8693V89.8409C906.748 89.8939 906.638 89.9432 906.483 89.9886C906.331 90.0341 906.161 90.0739 905.972 90.108C905.782 90.142 905.595 90.1723 905.409 90.1989C905.223 90.2254 905.063 90.2481 904.926 90.267C904.619 90.3087 904.345 90.3769 904.102 90.4716C903.86 90.5663 903.669 90.6989 903.528 90.8693C903.388 91.036 903.318 91.2519 903.318 91.517C903.318 91.8958 903.456 92.1818 903.733 92.375C904.009 92.5682 904.362 92.6648 904.79 92.6648ZM911.898 97.2727C911.617 97.2727 911.358 97.25 911.119 97.2045C910.884 97.1629 910.697 97.1136 910.557 97.0568L911.034 95.4545C911.333 95.5417 911.6 95.5833 911.835 95.5795C912.07 95.5758 912.277 95.5019 912.455 95.358C912.636 95.2178 912.79 94.983 912.915 94.6534L913.091 94.1818L909.926 85.2727H912.108L914.119 91.8636H914.21L916.227 85.2727H918.415L914.92 95.0568C914.758 95.5189 914.542 95.9148 914.273 96.2443C914.004 96.5777 913.674 96.8314 913.284 97.0057C912.898 97.1837 912.436 97.2727 911.898 97.2727ZM926.736 87.5795L924.861 87.7841C924.808 87.5947 924.715 87.4167 924.582 87.25C924.454 87.0833 924.279 86.9489 924.06 86.8466C923.84 86.7443 923.571 86.6932 923.253 86.6932C922.825 86.6932 922.465 86.786 922.173 86.9716C921.885 87.1572 921.743 87.3977 921.747 87.6932C921.743 87.947 921.836 88.1534 922.026 88.3125C922.219 88.4716 922.537 88.6023 922.98 88.7045L924.469 89.0227C925.295 89.2008 925.908 89.483 926.31 89.8693C926.715 90.2557 926.92 90.7614 926.923 91.3864C926.92 91.9356 926.759 92.4205 926.44 92.8409C926.126 93.2576 925.688 93.5833 925.128 93.8182C924.567 94.053 923.923 94.1705 923.196 94.1705C922.128 94.1705 921.268 93.947 920.616 93.5C919.965 93.0492 919.577 92.4223 919.452 91.6193L921.457 91.4261C921.548 91.8201 921.741 92.1174 922.037 92.3182C922.332 92.5189 922.717 92.6193 923.19 92.6193C923.679 92.6193 924.071 92.5189 924.366 92.3182C924.666 92.1174 924.815 91.8693 924.815 91.5739C924.815 91.3239 924.719 91.1174 924.526 90.9545C924.336 90.7917 924.041 90.6667 923.639 90.5795L922.151 90.267C921.313 90.0928 920.694 89.7992 920.293 89.3864C919.891 88.9697 919.692 88.4432 919.696 87.8068C919.692 87.2689 919.838 86.803 920.134 86.4091C920.433 86.0114 920.848 85.7045 921.378 85.4886C921.912 85.2689 922.527 85.1591 923.224 85.1591C924.247 85.1591 925.052 85.3769 925.639 85.8125C926.23 86.2481 926.596 86.8371 926.736 87.5795ZM876.148 116V104.364H883.716V106.131H878.256V109.29H883.324V111.057H878.256V114.233H883.761V116H876.148ZM888.287 116.176C887.734 116.176 887.236 116.078 886.793 115.881C886.353 115.68 886.005 115.384 885.747 114.994C885.493 114.604 885.366 114.123 885.366 113.551C885.366 113.059 885.457 112.652 885.639 112.33C885.821 112.008 886.069 111.75 886.384 111.557C886.698 111.364 887.052 111.218 887.446 111.119C887.844 111.017 888.255 110.943 888.679 110.898C889.19 110.845 889.605 110.797 889.923 110.756C890.241 110.71 890.473 110.642 890.616 110.551C890.764 110.456 890.838 110.311 890.838 110.114V110.08C890.838 109.652 890.711 109.32 890.457 109.085C890.204 108.85 889.838 108.733 889.361 108.733C888.857 108.733 888.457 108.843 888.162 109.062C887.87 109.282 887.673 109.542 887.571 109.841L885.651 109.568C885.802 109.038 886.052 108.595 886.401 108.239C886.749 107.879 887.175 107.61 887.679 107.432C888.183 107.25 888.74 107.159 889.349 107.159C889.77 107.159 890.188 107.208 890.605 107.307C891.022 107.405 891.402 107.568 891.747 107.795C892.092 108.019 892.368 108.324 892.577 108.71C892.789 109.097 892.895 109.58 892.895 110.159V116H890.918V114.801H890.849C890.724 115.044 890.548 115.271 890.321 115.483C890.098 115.691 889.815 115.86 889.474 115.989C889.137 116.114 888.741 116.176 888.287 116.176ZM888.821 114.665C889.234 114.665 889.592 114.583 889.895 114.42C890.198 114.254 890.431 114.034 890.594 113.761C890.76 113.489 890.844 113.191 890.844 112.869V111.841C890.779 111.894 890.67 111.943 890.514 111.989C890.363 112.034 890.192 112.074 890.003 112.108C889.813 112.142 889.626 112.172 889.44 112.199C889.255 112.225 889.094 112.248 888.957 112.267C888.651 112.309 888.376 112.377 888.134 112.472C887.891 112.566 887.7 112.699 887.56 112.869C887.42 113.036 887.349 113.252 887.349 113.517C887.349 113.896 887.488 114.182 887.764 114.375C888.041 114.568 888.393 114.665 888.821 114.665ZM901.861 109.58L899.986 109.784C899.933 109.595 899.84 109.417 899.707 109.25C899.579 109.083 899.404 108.949 899.185 108.847C898.965 108.744 898.696 108.693 898.378 108.693C897.95 108.693 897.59 108.786 897.298 108.972C897.01 109.157 896.868 109.398 896.872 109.693C896.868 109.947 896.961 110.153 897.151 110.312C897.344 110.472 897.662 110.602 898.105 110.705L899.594 111.023C900.42 111.201 901.033 111.483 901.435 111.869C901.84 112.256 902.045 112.761 902.048 113.386C902.045 113.936 901.884 114.42 901.565 114.841C901.251 115.258 900.813 115.583 900.253 115.818C899.692 116.053 899.048 116.17 898.321 116.17C897.253 116.17 896.393 115.947 895.741 115.5C895.09 115.049 894.702 114.422 894.577 113.619L896.582 113.426C896.673 113.82 896.866 114.117 897.162 114.318C897.457 114.519 897.842 114.619 898.315 114.619C898.804 114.619 899.196 114.519 899.491 114.318C899.791 114.117 899.94 113.869 899.94 113.574C899.94 113.324 899.844 113.117 899.651 112.955C899.461 112.792 899.166 112.667 898.764 112.58L897.276 112.267C896.438 112.093 895.819 111.799 895.418 111.386C895.016 110.97 894.817 110.443 894.821 109.807C894.817 109.269 894.963 108.803 895.259 108.409C895.558 108.011 895.973 107.705 896.503 107.489C897.037 107.269 897.652 107.159 898.349 107.159C899.372 107.159 900.177 107.377 900.764 107.812C901.355 108.248 901.721 108.837 901.861 109.58ZM905.023 119.273C904.742 119.273 904.483 119.25 904.244 119.205C904.009 119.163 903.822 119.114 903.682 119.057L904.159 117.455C904.458 117.542 904.725 117.583 904.96 117.58C905.195 117.576 905.402 117.502 905.58 117.358C905.761 117.218 905.915 116.983 906.04 116.653L906.216 116.182L903.051 107.273H905.233L907.244 113.864H907.335L909.352 107.273H911.54L908.045 117.057C907.883 117.519 907.667 117.915 907.398 118.244C907.129 118.578 906.799 118.831 906.409 119.006C906.023 119.184 905.561 119.273 905.023 119.273ZM917.023 116V104.364H921.386C922.28 104.364 923.03 104.519 923.636 104.83C924.246 105.14 924.706 105.576 925.017 106.136C925.331 106.693 925.489 107.343 925.489 108.085C925.489 108.831 925.33 109.479 925.011 110.028C924.697 110.574 924.233 110.996 923.619 111.295C923.006 111.591 922.252 111.739 921.358 111.739H918.25V109.989H921.074C921.597 109.989 922.025 109.917 922.358 109.773C922.691 109.625 922.938 109.411 923.097 109.131C923.259 108.847 923.341 108.498 923.341 108.085C923.341 107.672 923.259 107.32 923.097 107.028C922.934 106.733 922.686 106.509 922.352 106.358C922.019 106.203 921.589 106.125 921.062 106.125H919.131V116H917.023ZM923.034 110.727L925.915 116H923.562L920.733 110.727H923.034ZM931.077 116.17C930.202 116.17 929.446 115.989 928.81 115.625C928.177 115.258 927.69 114.739 927.349 114.068C927.009 113.394 926.838 112.6 926.838 111.688C926.838 110.79 927.009 110.002 927.349 109.324C927.694 108.642 928.175 108.112 928.793 107.733C929.41 107.35 930.135 107.159 930.969 107.159C931.507 107.159 932.014 107.246 932.491 107.42C932.973 107.591 933.397 107.856 933.764 108.216C934.135 108.576 934.427 109.034 934.639 109.591C934.851 110.144 934.957 110.803 934.957 111.568V112.199H927.804V110.812H932.986C932.982 110.419 932.897 110.068 932.73 109.761C932.563 109.451 932.33 109.206 932.031 109.028C931.736 108.85 931.391 108.761 930.997 108.761C930.577 108.761 930.207 108.864 929.889 109.068C929.571 109.269 929.323 109.534 929.145 109.864C928.971 110.189 928.882 110.547 928.878 110.938V112.148C928.878 112.655 928.971 113.091 929.156 113.455C929.342 113.814 929.601 114.091 929.935 114.284C930.268 114.473 930.658 114.568 931.105 114.568C931.404 114.568 931.675 114.527 931.918 114.443C932.16 114.356 932.37 114.229 932.548 114.062C932.726 113.896 932.861 113.689 932.952 113.443L934.872 113.659C934.751 114.167 934.52 114.61 934.179 114.989C933.842 115.364 933.41 115.655 932.884 115.864C932.357 116.068 931.755 116.17 931.077 116.17ZM941.055 107.273V108.864H936.038V107.273H941.055ZM937.277 105.182H939.334V113.375C939.334 113.652 939.375 113.864 939.459 114.011C939.546 114.155 939.66 114.254 939.8 114.307C939.94 114.36 940.095 114.386 940.266 114.386C940.394 114.386 940.512 114.377 940.618 114.358C940.728 114.339 940.811 114.322 940.868 114.307L941.214 115.915C941.105 115.953 940.947 115.994 940.743 116.04C940.542 116.085 940.296 116.112 940.004 116.119C939.489 116.134 939.025 116.057 938.612 115.886C938.199 115.712 937.872 115.443 937.629 115.08C937.391 114.716 937.273 114.261 937.277 113.716V105.182ZM948.338 112.33V107.273H950.395V116H948.401V114.449H948.31C948.113 114.937 947.789 115.337 947.338 115.648C946.891 115.958 946.34 116.114 945.685 116.114C945.113 116.114 944.607 115.987 944.168 115.733C943.732 115.475 943.391 115.102 943.145 114.614C942.899 114.121 942.776 113.527 942.776 112.83V107.273H944.832V112.511C944.832 113.064 944.984 113.504 945.287 113.83C945.59 114.155 945.988 114.318 946.48 114.318C946.783 114.318 947.077 114.244 947.361 114.097C947.645 113.949 947.878 113.729 948.06 113.438C948.245 113.142 948.338 112.773 948.338 112.33ZM952.51 116V107.273H954.504V108.727H954.595C954.754 108.223 955.027 107.835 955.413 107.562C955.804 107.286 956.249 107.148 956.749 107.148C956.862 107.148 956.989 107.153 957.129 107.165C957.273 107.172 957.393 107.186 957.487 107.205V109.097C957.4 109.066 957.262 109.04 957.072 109.017C956.887 108.991 956.707 108.977 956.533 108.977C956.158 108.977 955.821 109.059 955.521 109.222C955.226 109.381 954.993 109.602 954.822 109.886C954.652 110.17 954.567 110.498 954.567 110.869V116H952.51ZM960.911 110.886V116H958.854V107.273H960.82V108.756H960.922C961.123 108.267 961.443 107.879 961.882 107.591C962.325 107.303 962.873 107.159 963.524 107.159C964.126 107.159 964.651 107.288 965.098 107.545C965.549 107.803 965.897 108.176 966.143 108.665C966.393 109.153 966.517 109.746 966.513 110.443V116H964.456V110.761C964.456 110.178 964.304 109.722 964.001 109.392C963.702 109.062 963.287 108.898 962.757 108.898C962.397 108.898 962.077 108.977 961.797 109.136C961.52 109.292 961.303 109.517 961.143 109.812C960.988 110.108 960.911 110.466 960.911 110.886Z" fill="#424242"/>
<g clip-path="url(#clip1_1592_10537)">
<path d="M1105.09 84.6328L1102.74 90.7571L1102.61 91.0996L1094.1 113.326L1093.02 116.117L1093.02 116.121V116.124L1077.78 155.922L1078.12 159.703H1050.76C1052.15 147.061 1055.53 139.679 1060.78 127.513L1078.63 86.1262L1079.27 84.6362H1105.09V84.6328Z" fill="#FFCA00"/>
<path d="M1094.39 110.477L1094.1 113.326L1093.46 119.636V119.653L1093.12 123.126L1077.79 155.922L1078.12 159.704H1071.85L1071.67 156.648L1092.74 113.816L1094.39 110.477Z" fill="#0A0A0A"/>
<path d="M1125.52 159.703H1098.42L1093.46 119.652L1093.02 116.124V116.121L1092.74 113.816L1089.59 88.3971L1089.12 84.6328H1111.66L1113.26 93.3055L1115.25 104.091L1115.27 104.187V104.191L1115.36 104.691L1116.89 112.963L1117.75 117.587L1118.7 122.776V122.779L1118.72 122.827L1119.12 125.03L1119.44 126.756L1125.52 159.703Z" fill="#FFCA00"/>
<path d="M1098.42 160.002C1098.28 160.002 1098.15 159.892 1098.13 159.745L1092.47 114.069C1092.45 113.908 1092.57 113.761 1092.73 113.741C1092.89 113.72 1093.04 113.837 1093.06 113.998L1098.72 159.673C1098.74 159.834 1098.62 159.981 1098.46 160.002C1098.45 159.998 1098.44 160.002 1098.42 160.002Z" fill="#0A0A0A"/>
<path d="M1125.52 159.998C1125.38 159.998 1125.26 159.898 1125.24 159.758L1118.42 122.848C1118.41 122.838 1118.41 122.827 1118.41 122.817L1114.98 104.249C1114.98 104.242 1114.98 104.235 1114.98 104.228L1114.96 104.146L1111.37 84.6876C1111.34 84.5266 1111.44 84.3759 1111.6 84.3451C1111.77 84.3143 1111.92 84.4205 1111.95 84.5814L1115.56 104.136C1115.56 104.143 1115.56 104.146 1115.56 104.153L1115.65 104.639L1119 122.725C1119 122.728 1119 122.728 1119 122.731L1119 122.766L1125.81 159.655C1125.85 159.816 1125.74 159.967 1125.58 159.998C1125.56 159.994 1125.54 159.998 1125.52 159.998Z" fill="#0A0A0A"/>
<path d="M1127.64 94.0831L1140.5 82.958L1124.76 55.7344L1106.99 58.3307L1127.64 94.0831Z" fill="#EDEDED"/>
<path d="M1115.51 68.0459L1129.34 63.6479L1125.52 56.7461L1103.95 58.3285L1115.51 68.0459Z" fill="#0A0A0A"/>
<path d="M1139.82 82.0789C1139.71 82.0789 1139.61 82.0275 1139.56 81.9316L1124.51 55.8863C1124.43 55.7458 1124.48 55.5643 1124.62 55.4855C1124.76 55.4033 1124.94 55.4513 1125.02 55.5917L1140.07 81.637C1140.15 81.7775 1140.1 81.959 1139.96 82.0378C1139.92 82.0652 1139.86 82.0789 1139.82 82.0789Z" fill="#0A0A0A"/>
<path d="M1040.31 77.3423L1047.19 85.6244C1049.16 87.9912 1052.67 88.3166 1055.04 86.3506L1079.37 66.1452L1068.92 53.5781L1040.31 77.3423Z" fill="#EDEDED"/>
<path d="M1061.48 59.7641L1074.83 69.9198L1079.37 66.1452L1068.93 53.5781L1061.48 59.7641Z" fill="#0A0A0A"/>
<path d="M1060.97 81.4133L1063.32 79.4644L1036.48 52.2031L1026.97 61.3005L1042.25 79.687C1046.94 85.3318 1055.32 86.1059 1060.97 81.4133Z" fill="#EDEDED"/>
<path d="M1031.97 49.3084L1020.15 34.3677C1019.48 33.5148 1019.62 32.2749 1020.48 31.6035C1021.33 30.9287 1022.57 31.076 1023.24 31.9289L1035.06 46.8697L1031.97 49.3084Z" fill="#EDEDED"/>
<path d="M1028.14 51.864C1027.47 52.395 1026.5 52.2853 1025.96 51.6174L1022.94 47.7983L1021.36 49.0588L1020.63 48.1374C1019.45 46.668 1019.87 45.017 1019.87 45.041C1020.18 43.3044 1022.44 42.1981 1023.66 43.7326L1028.39 49.689C1028.92 50.3604 1028.81 51.3331 1028.14 51.864Z" fill="#EDEDED"/>
<path d="M1024.1 51.7C1023.43 52.2309 1022.46 52.1213 1021.93 51.4534L1020.53 49.6928L1018.95 50.9533L1018.22 50.0319C1017.04 48.5625 1017.46 46.9116 1017.46 46.9356C1017.77 45.199 1020.02 44.0926 1021.25 45.6271L1024.35 49.525C1024.88 50.1964 1024.77 51.1691 1024.1 51.7Z" fill="#EDEDED"/>
<path d="M1036.97 49.3352C1036.66 51.6849 1036.16 54.0004 1035.48 56.2679L1034.37 59.9157L1027.76 62.1764L1018.06 49.9073L1027.95 42.0909L1032.91 48.3625L1033.73 42.0361C1033.89 40.7345 1034.57 39.5494 1035.6 38.7342L1037.41 37.3025C1038.21 36.6722 1039.37 36.8092 1040 37.6039L1040.13 37.7786C1040.76 38.5766 1040.63 39.7344 1039.83 40.3646L1039.55 40.5907C1038.52 41.4024 1037.85 42.5876 1037.68 43.8892L1036.97 49.3352Z" fill="#EDEDED"/>
<path d="M1031.5 51.1605C1030.84 51.6914 1029.86 51.5818 1029.33 50.9139L1025.36 45.896L1023.77 47.1564L1023.04 46.2351C1021.87 44.7657 1022.29 43.1147 1022.29 43.1387C1022.59 41.4021 1024.85 40.2958 1026.07 41.8302L1031.75 48.9855C1032.28 49.6534 1032.17 50.6262 1031.5 51.1605Z" fill="#EDEDED"/>
<path d="M1030.54 51.7856C1030.03 51.7856 1029.52 51.5733 1029.16 51.1588L1028.15 49.8812C1028.05 49.7545 1028.07 49.5695 1028.19 49.4667C1028.32 49.3674 1028.51 49.388 1028.61 49.5147L1029.61 50.782C1030.04 51.2718 1030.8 51.3403 1031.32 50.9225C1031.86 50.4909 1031.95 49.7031 1031.52 49.1619L1025.85 42.0032C1025.44 41.4963 1024.88 41.2908 1024.25 41.4278C1023.47 41.599 1022.8 42.267 1022.61 43.0513C1022.57 43.2089 1022.41 43.3048 1022.25 43.2671C1022.09 43.2294 1022 43.0684 1022.04 42.9109C1022.28 41.9005 1023.12 41.075 1024.13 40.8523C1024.97 40.6674 1025.76 40.9517 1026.31 41.6367L1031.98 48.7954C1032.61 49.5901 1032.48 50.7478 1031.68 51.3814C1031.35 51.6555 1030.94 51.7856 1030.54 51.7856Z" fill="#0A0A0A"/>
<path d="M1027.18 52.4972C1026.64 52.4972 1026.1 52.2608 1025.73 51.8053L1024.3 49.9933C1024.2 49.8666 1024.22 49.6817 1024.35 49.5789C1024.48 49.4796 1024.66 49.5001 1024.76 49.6269L1026.2 51.4388C1026.41 51.6991 1026.7 51.8635 1027.04 51.9012C1027.37 51.9389 1027.7 51.843 1027.96 51.6375C1028.5 51.2059 1028.59 50.4181 1028.16 49.8769L1023.43 43.9204C1022.88 43.2354 1022.19 43.2662 1021.83 43.345C1021.06 43.5163 1020.38 44.1842 1020.19 44.9686C1020.15 45.1261 1019.99 45.2255 1019.83 45.1844C1019.68 45.1467 1019.58 44.9857 1019.62 44.8281C1019.86 43.8177 1020.7 42.9888 1021.71 42.7662C1022.55 42.5812 1023.35 42.8655 1023.89 43.5505L1028.62 49.507C1029.25 50.3016 1029.12 51.4593 1028.32 52.093C1027.98 52.3636 1027.58 52.4972 1027.18 52.4972Z" fill="#0A0A0A"/>
<path d="M1022.03 55.2385C1021.95 55.2385 1021.86 55.2008 1021.8 55.1255C1021.66 54.9474 1021.49 54.7316 1021.28 54.485C1019.76 52.6353 1016.92 49.1896 1017.28 46.7782C1017.38 46.0624 1017.76 45.4869 1018.39 45.0656C1020.25 43.8325 1021.48 45.4116 1022.37 46.5659C1022.45 46.6686 1022.53 46.7714 1022.61 46.8673C1022.76 47.0522 1022.96 47.2783 1023.18 47.5146C1024.04 48.4463 1025.1 49.6075 1024.97 50.7035C1024.89 51.4194 1024.48 51.9572 1023.85 52.1798C1023.14 52.4298 1022.28 52.2209 1021.72 51.6626C1021.39 51.3269 1021.1 50.933 1020.81 50.5494C1020.68 50.3644 1020.55 50.1829 1020.41 50.0116C1020.31 49.8849 1020.33 49.6999 1020.46 49.5972C1020.58 49.4978 1020.77 49.5184 1020.87 49.6451C1021.01 49.8232 1021.15 50.0116 1021.29 50.2C1021.56 50.5631 1021.83 50.9399 1022.14 51.2447C1022.54 51.6489 1023.15 51.7996 1023.65 51.6249C1024.07 51.4776 1024.33 51.1283 1024.39 50.635C1024.48 49.8061 1023.48 48.7101 1022.75 47.9086C1022.52 47.6619 1022.31 47.429 1022.15 47.2304C1022.07 47.131 1021.99 47.0283 1021.91 46.9221C1020.83 45.5315 1020.02 44.682 1018.72 45.5486C1018.23 45.8774 1017.95 46.3056 1017.86 46.857C1017.55 49.008 1020.28 52.3237 1021.74 54.1048C1021.95 54.3548 1022.13 54.5706 1022.27 54.7521C1022.37 54.8789 1022.35 55.0638 1022.22 55.1666C1022.16 55.218 1022.1 55.2385 1022.03 55.2385Z" fill="#0A0A0A"/>
<path d="M1036.48 52.4978C1036.46 52.4978 1036.44 52.4943 1036.42 52.4909C1036.26 52.4567 1036.16 52.2991 1036.19 52.1415C1036.77 49.4459 1037.08 47.0482 1037.12 44.8116C1037.12 44.7979 1037.12 44.7842 1037.12 44.7739C1037.33 43.3935 1038.12 42.2118 1038.88 41.0678C1039.24 40.5164 1039.62 39.9444 1039.93 39.3689C1040.23 38.8277 1040.22 38.2763 1039.91 37.8515C1039.52 37.3378 1038.78 37.1322 1037.98 37.3069C1035.38 38.4236 1034.01 40.7972 1033.67 44.7739C1033.66 44.8938 1033.58 44.9965 1033.46 45.0308C1033.35 45.065 1033.22 45.0274 1033.15 44.9315C1032.92 44.6437 1032.53 44.1676 1032.04 43.5579C1029.95 40.989 1026.07 36.2109 1023.61 32.6247C1023.55 32.5596 1023.47 32.4877 1023.4 32.4123C1022.93 31.9191 1022.34 31.306 1021.59 31.2923C1020.92 31.4875 1020.15 31.9259 1019.91 32.4911C1019.78 32.7754 1019.8 33.0597 1019.96 33.3679C1020.99 35.4059 1022.45 37.0706 1023.86 38.6839C1024.71 39.6601 1025.59 40.6671 1026.36 41.7426C1026.46 41.8727 1026.43 42.0577 1026.29 42.1536C1026.16 42.2495 1025.98 42.2187 1025.88 42.0851C1025.13 41.0336 1024.26 40.0368 1023.41 39.0709C1021.98 37.4302 1020.5 35.7348 1019.43 33.6317C1019.2 33.1693 1019.18 32.6932 1019.37 32.2513C1019.73 31.4498 1020.69 30.9326 1021.47 30.7134C1021.5 30.7065 1021.53 30.7031 1021.56 30.7031C1022.58 30.7031 1023.31 31.4567 1023.83 32.0047C1023.91 32.0835 1023.99 32.1588 1024.05 32.2273C1024.07 32.241 1024.08 32.2547 1024.09 32.2719C1026.53 35.8409 1030.42 40.6225 1032.5 43.1914C1032.76 43.5031 1032.98 43.7772 1033.17 44.0101C1033.63 40.256 1035.15 37.8824 1037.78 36.7589C1037.8 36.752 1037.82 36.7452 1037.83 36.7418C1038.88 36.502 1039.86 36.7932 1040.39 37.5022C1040.84 38.1119 1040.87 38.9168 1040.45 39.6532C1040.14 40.2492 1039.75 40.8315 1039.38 41.3966C1038.62 42.5304 1037.91 43.6025 1037.72 44.8458C1037.67 47.1167 1037.37 49.5452 1036.78 52.2717C1036.74 52.4018 1036.62 52.4978 1036.48 52.4978Z" fill="#0A0A0A"/>
<path d="M1063.42 56.2141C1063.42 56.2141 1069.09 48.7266 1075.64 48.7266H1111.7C1119.05 48.7266 1126.84 54.6762 1129.07 60.0777L1115.5 68.0482L1116.98 94.0867L1074.52 85.2839L1074.79 64.4997L1063.42 56.2141Z" fill="#3FB700"/>
<path d="M1116.98 94.3833C1116.96 94.3833 1116.94 94.3799 1116.92 94.3765L1074.46 85.5737C1074.33 85.5463 1074.23 85.4229 1074.23 85.2825L1074.5 64.6525L1063.25 56.4559C1063.18 56.408 1063.14 56.3395 1063.13 56.2607C1063.12 56.1819 1063.14 56.1031 1063.18 56.0415C1063.42 55.7298 1069.02 48.4375 1075.64 48.4375H1111.7C1119.29 48.4375 1127.09 54.5138 1129.34 59.9702C1129.4 60.1072 1129.35 60.2613 1129.22 60.3367L1115.81 68.2181L1117.27 94.075C1117.28 94.1675 1117.24 94.2566 1117.17 94.3148C1117.12 94.3593 1117.05 94.3833 1116.98 94.3833ZM1074.82 85.0496L1116.66 93.7257L1115.21 68.0708C1115.2 67.9612 1115.26 67.855 1115.35 67.8002L1128.69 59.9599C1126.39 54.7502 1118.74 49.0266 1111.7 49.0266H1075.64C1069.96 49.0266 1064.86 54.9043 1063.84 56.1648L1074.97 64.2688C1075.04 64.3236 1075.09 64.4161 1075.08 64.5086L1074.82 85.0496Z" fill="#0A0A0A"/>
<path d="M1115.36 104.441L1124.72 114.038L1140.47 92.1649C1142.26 89.6748 1142.37 86.3524 1140.75 83.7492L1133.35 71.8945L1115.36 104.441Z" fill="#EDEDED"/>
<path d="M1102.97 118.214L1103.05 117.92L1103.46 116.289L1103.58 115.851L1103.59 115.834C1104.33 113.357 1105.9 111.206 1108.04 109.737L1116.47 103.941L1124.72 114.039L1120.03 123.256L1105.64 118.735L1105.03 121.321L1104.74 121.242C1103.42 120.886 1102.64 119.536 1102.97 118.214Z" fill="#EDEDED"/>
<path d="M1120.04 123.546C1120.01 123.546 1119.98 123.543 1119.95 123.533L1105.56 119.011C1105.4 118.963 1105.32 118.799 1105.37 118.641C1105.41 118.487 1105.58 118.402 1105.74 118.45L1119.89 122.896L1124.37 114.072L1116.25 104.122C1116.14 103.995 1116.16 103.81 1116.29 103.708C1116.41 103.605 1116.6 103.622 1116.7 103.749L1124.95 113.846C1125.03 113.935 1125.04 114.062 1124.98 114.165L1120.3 123.382C1120.25 123.488 1120.15 123.546 1120.04 123.546Z" fill="#0A0A0A"/>
<path d="M1107.43 126.236L1110.44 114.443L1106.88 113.535L1103.87 125.328C1103.77 125.715 1104.01 126.109 1104.4 126.208L1106.56 126.76C1106.94 126.856 1107.34 126.623 1107.43 126.236Z" fill="#EDEDED"/>
<path d="M1110.58 128.776L1113.73 116.408L1110.17 115.5L1107.02 127.868C1106.92 128.255 1107.15 128.649 1107.54 128.749L1109.7 129.3C1110.09 129.396 1110.48 129.163 1110.58 128.776Z" fill="#EDEDED"/>
<path d="M1117.71 130.584L1120.82 118.38L1117.26 117.473L1114.15 129.677C1114.05 130.064 1114.29 130.458 1114.67 130.557L1116.83 131.108C1117.22 131.204 1117.61 130.971 1117.71 130.584Z" fill="#EDEDED"/>
<path d="M1122.48 122.98L1124.7 114.122L1121.12 113.211L1117.34 128.207L1120.21 126.237C1121.33 125.463 1122.14 124.305 1122.48 122.98Z" fill="#EDEDED"/>
<path d="M1112.3 129.09L1112.49 129.138C1113.43 129.374 1114.41 128.682 1114.68 127.586L1117.47 116.673L1113.9 115.766L1111.12 126.678C1110.84 127.774 1111.37 128.853 1112.3 129.09Z" fill="#EDEDED"/>
<path d="M1109.13 129.385C1108.95 129.385 1108.78 129.364 1108.61 129.32L1108.49 129.289C1107.38 129.008 1106.71 127.878 1106.99 126.775L1108.1 122.425C1108.15 122.267 1108.31 122.172 1108.46 122.213C1108.62 122.254 1108.71 122.411 1108.67 122.569L1107.56 126.919C1107.36 127.71 1107.84 128.518 1108.63 128.717L1108.76 128.748C1109.14 128.847 1109.54 128.789 1109.88 128.587C1110.22 128.385 1110.46 128.063 1110.55 127.679L1111.53 123.85C1111.57 123.692 1111.73 123.596 1111.89 123.638C1112.05 123.679 1112.14 123.836 1112.1 123.994L1111.12 127.823C1110.99 128.357 1110.65 128.81 1110.17 129.09C1109.86 129.286 1109.49 129.385 1109.13 129.385Z" fill="#0A0A0A"/>
<path d="M1112.92 129.486C1112.75 129.486 1112.58 129.465 1112.41 129.421L1112.22 129.373C1111.69 129.239 1111.25 128.907 1110.97 128.441C1110.69 127.975 1110.61 127.427 1110.75 126.9L1111.63 123.409C1111.68 123.252 1111.83 123.156 1111.99 123.197C1112.15 123.238 1112.24 123.396 1112.2 123.553L1111.32 127.044C1111.22 127.417 1111.28 127.807 1111.47 128.136C1111.67 128.468 1111.98 128.701 1112.36 128.797L1112.55 128.845C1112.93 128.941 1113.32 128.883 1113.65 128.688C1113.98 128.492 1114.21 128.177 1114.31 127.804L1115.23 124.187C1115.27 124.029 1115.43 123.933 1115.59 123.975C1115.74 124.016 1115.84 124.177 1115.8 124.331L1114.88 127.948C1114.74 128.475 1114.41 128.917 1113.94 129.195C1113.64 129.39 1113.28 129.486 1112.92 129.486Z" fill="#0A0A0A"/>
<path d="M1124.33 114.871L1132.8 101.893L1119.38 97.8516L1110.48 111.343L1124.33 114.871Z" fill="#EDEDED"/>
<path d="M1105.98 126.841C1105.81 126.841 1105.64 126.82 1105.47 126.776L1105.33 126.738C1104.79 126.601 1104.35 126.269 1104.07 125.796C1103.78 125.323 1103.71 124.769 1103.84 124.238L1106.33 114.448C1106.38 114.291 1106.53 114.195 1106.69 114.236C1106.85 114.277 1106.94 114.435 1106.9 114.592L1104.41 124.382C1104.31 124.762 1104.37 125.156 1104.57 125.495C1104.77 125.834 1105.09 126.07 1105.47 126.17L1105.61 126.207C1106 126.303 1106.39 126.248 1106.73 126.046C1107.07 125.844 1107.3 125.526 1107.4 125.145L1108.29 121.645C1108.34 121.487 1108.49 121.391 1108.65 121.432C1108.81 121.474 1108.9 121.631 1108.86 121.789L1107.97 125.289C1107.74 126.221 1106.9 126.841 1105.98 126.841Z" fill="#0A0A0A"/>
<path d="M1116.24 131.202C1116.06 131.202 1115.89 131.182 1115.72 131.137L1115.63 131.113C1115.09 130.976 1114.64 130.637 1114.35 130.158C1114.07 129.678 1113.98 129.12 1114.12 128.579L1115.38 123.646C1115.42 123.489 1115.58 123.393 1115.74 123.434C1115.89 123.475 1115.99 123.633 1115.95 123.79L1114.69 128.723C1114.59 129.11 1114.65 129.514 1114.85 129.856C1115.06 130.199 1115.39 130.442 1115.77 130.541L1115.87 130.565C1116.25 130.665 1116.65 130.606 1117 130.401C1117.34 130.195 1117.59 129.87 1117.68 129.483L1118.31 127.185L1120.04 126.003C1121.1 125.27 1121.87 124.174 1122.19 122.917L1124.38 114.292C1124.42 114.135 1124.58 114.039 1124.73 114.08C1124.89 114.121 1124.99 114.278 1124.95 114.436L1122.76 123.061C1122.4 124.458 1121.55 125.674 1120.36 126.489L1118.82 127.551L1118.25 129.637C1118.02 130.576 1117.17 131.202 1116.24 131.202Z" fill="#0A0A0A"/>
<path d="M1104.88 121.653C1104.86 121.653 1104.83 121.649 1104.8 121.643C1103.31 121.235 1102.32 119.605 1102.69 118.149L1103.3 115.785C1103.3 115.758 1103.32 115.727 1103.33 115.703C1104.1 113.189 1105.71 110.99 1107.87 109.5L1116.31 103.708C1116.44 103.616 1116.63 103.65 1116.71 103.783C1116.81 103.917 1116.77 104.102 1116.64 104.191L1108.21 109.987C1106.14 111.408 1104.6 113.518 1103.88 115.926C1103.87 115.946 1103.86 115.967 1103.85 115.987L1103.26 118.293C1102.97 119.426 1103.78 120.752 1104.96 121.074C1105.12 121.115 1105.21 121.279 1105.16 121.434C1105.13 121.567 1105.01 121.653 1104.88 121.653Z" fill="#0A0A0A"/>
<path d="M1124.72 114.333C1124.66 114.333 1124.6 114.316 1124.55 114.279C1124.42 114.183 1124.39 114.001 1124.48 113.868L1139.76 92.6484C1141.78 89.8466 1141.97 86.1028 1140.24 83.1126L1132.7 70.066C1132.62 69.9255 1132.66 69.744 1132.8 69.6652C1132.95 69.583 1133.13 69.631 1133.21 69.7714L1140.74 82.818C1142.59 86.0069 1142.39 90.0007 1140.23 92.9943L1124.95 114.214C1124.9 114.289 1124.81 114.333 1124.72 114.333Z" fill="#0A0A0A"/>
<path d="M1114.76 105.405C1114.71 105.405 1114.66 105.392 1114.62 105.368C1114.48 105.289 1114.42 105.107 1114.5 104.967L1127.19 82.3297C1127.27 82.1893 1127.45 82.1379 1127.59 82.2167C1127.73 82.2955 1127.78 82.477 1127.71 82.6174L1115.02 105.255C1114.96 105.351 1114.86 105.405 1114.76 105.405Z" fill="#0A0A0A"/>
<path d="M1099.16 38.0868C1101.75 35.4932 1101.75 31.2881 1099.16 28.6944C1096.57 26.1008 1092.36 26.1008 1089.76 28.6944C1087.17 31.2881 1087.17 35.4932 1089.76 38.0868C1092.36 40.6805 1096.57 40.6805 1099.16 38.0868Z" fill="#0A0A0A"/>
<path d="M1094.83 53.326C1092.77 53.326 1091.1 51.658 1091.1 49.5994V38.9299H1098.56V49.5994C1098.56 51.658 1096.89 53.326 1094.83 53.326Z" fill="#EDEDED"/>
<path d="M1098.56 41.7557V38.9299H1091.1V45.1672C1091.78 45.3008 1093.12 45.4686 1094.66 44.9617C1097.07 44.167 1098.25 42.2832 1098.56 41.7557Z" fill="#0A0A0A"/>
<path d="M1089.24 31.8359H1098.4C1099.28 32.9868 1099.82 34.4734 1099.82 36.1003C1099.82 39.7585 1097.13 42.7247 1093.82 42.7247C1090.51 42.7247 1087.82 39.7585 1087.82 36.1003C1087.83 34.4734 1088.36 32.9868 1089.24 31.8359Z" fill="#EDEDED"/>
<path d="M1096.43 39.0102C1095.85 39.5411 1095.1 39.9008 1094.26 39.9864C1092.38 40.1782 1090.69 38.9588 1090.22 37.1914L1096.43 39.0102Z" fill="white"/>
</g>
</g>
<rect x="0.5" y="0.5" width="1159" height="159" rx="15.5" stroke="#EDEDED"/>
<defs>
<clipPath id="clip0_1592_10537">
<rect width="1160" height="160" rx="16" fill="white"/>
</clipPath>
<clipPath id="clip1_1592_10537">
<rect width="160" height="160" fill="white" transform="translate(1000)"/>
</clipPath>
</defs>
</svg>
